<?xml version="1.0" encoding="UTF-8"?>
<!DOCTYPE svg PUBLIC "-//W3C//DTD SVG 1.1//EN" "http://www.w3.org/Graphics/SVG/1.1/DTD/svg11.dtd">
<!-- Creator: CorelDRAW 2021 (64-Bit) -->
<svg xmlns="http://www.w3.org/2000/svg" xml:space="preserve" width="142.322mm" height="40.2036mm" version="1.1" shape-rendering="geometricPrecision" text-rendering="geometricPrecision" image-rendering="optimizeQuality" fill-rule="evenodd" clip-rule="evenodd"
viewBox="0 0 12419.9 3508.42"
 xmlns:xlink="http://www.w3.org/1999/xlink"
 xmlns:xodm="http://www.corel.com/coreldraw/odm/2003">
 <g id="Layer_x0020_1">
  <metadata id="CorelCorpID_0Corel-Layer"/>
  <g id="_2089545702016">
   <path fill="black" d="M5252.21 14.12l0 1891.93c0,10.84 3.28,14.12 14.12,14.12l371.8 0 0 -1534.25 1322.47 0c122.84,0 198.71,32.61 283.58,107.03 23.59,20.67 65.69,81.74 80.47,112.5 91.8,190.95 -0.43,417.49 -175.75,505.29 -38.49,19.28 -93.35,37.59 -150.66,37.59l-978.91 0 0 385.92 945.97 0c130.76,0 252.32,56.75 322.02,158.02 159.01,231.06 41.55,511.32 -188.36,587.45 -45.69,15.13 -79.2,16.96 -138.36,16.95l-1642.5 0c-21.53,-0.03 -65.89,-8.54 -65.89,14.12l0 371.8 1764.86 0c206.63,0 378.71,-98.91 514.16,-234.14 218.81,-218.46 282.46,-580.3 138.51,-870.34 -32.05,-64.58 -119.27,-190.07 -182.04,-232.11 31.03,-46.34 98.32,-74.35 180.41,-238.46 98.07,-196.06 105.91,-455.29 11,-658.9 -22.92,-49.18 -76.61,-136.18 -112.52,-174.56 -81.43,-87 -159.82,-159.75 -275.18,-209.57 -88.12,-38.07 -197.18,-64.51 -321.41,-64.51l-1703.68 0c-10.84,0 -14.12,3.27 -14.12,14.12z"/>
   <path fill="black" d="M9577.3 2682.59l1901.33 0 0 -385.92 -1284.81 0 809.48 -1647.21c5.83,25.03 47.71,100.34 61.2,127.05l214.9 443.99c11.42,22.84 19.96,39.91 31.37,62.74l247.86 509.85c20.15,40.29 44.57,83.59 62.54,125.71 19.7,46.14 39.38,82.85 61.39,126.86l309.05 636.92 428.28 0 -406.29 -840.88c-26.45,-57.08 -58.29,-110.5 -83.11,-166.33 -49.48,-111.28 -186.71,-387.35 -244.78,-503.51l-224.4 -458.03c-8.25,-16.49 -12.8,-30.46 -20.26,-45.61 -26.24,-53.28 -59.89,-111.14 -82.8,-166.64 -23.72,-57.46 -54.84,-113.6 -82.01,-167.42l-81.56 -167.87c-7.56,-15.11 -13.37,-25.55 -20.41,-40.76 -7.56,-16.3 -10.7,-26.41 -18.77,-42.42 -12.31,-24.42 -33.07,-78.4 -48.67,-78.4l-216.48 0c-17.8,0 -38.85,60.6 -45.71,76.66l-286.81 588.55c-26.98,56.22 -58.87,109.92 -83,166.44l-163.35 335.5c-27.85,55.68 -53.2,111.09 -81.58,167.86l-326.52 671.22c-24.12,56.52 -56.02,110.23 -83,166.44l-120.72 251.07c-14.22,28.2 -28.26,56.46 -42.37,84.7l-80.01 169.43z"/>
   <path fill="black" d="M7835.97 14.12l0 371.8 2301.37 0 0 -381.21c-60.49,0 -103.76,-4.7 -164.72,-4.7l-2122.54 0c-10.85,0 -14.12,3.27 -14.12,14.12z"/>
   <polygon fill="black" points="8796.05,2682.59 9181.97,2682.59 9181.97,767.12 8796.05,767.12 "/>
   <path fill="black" d="M1237.75 3317.93c0,119.66 111.6,188.84 220.44,140.44 41.67,-18.52 166.19,-152.92 206.66,-193.38 67.82,-67.82 132.19,-132.19 200.01,-200.01 34.09,-34.09 64.73,-64.74 98.83,-98.83 128.26,-128.26 129.01,-80.42 -4.7,-214.14 -26.56,-26.56 -83.34,-89.6 -109.42,-107.07 -20.46,13.71 -295.96,293.61 -321.2,318.85l-240.09 239.95c-25.39,25.18 -50.53,65.83 -50.53,114.2z"/>
   <path fill="black" d="M1237.75 2037.82c-5.72,-21.43 -133.75,-140.8 -158.83,-165.89 -15.42,-15.41 -36.68,-44.99 -57.66,-50.59l-184.72 182.36c-73.93,73.93 -338.91,332.21 -386.27,390.28 -102.63,125.84 12.2,293.97 165.2,246.09 0.48,-0.16 1.76,-0.58 2.24,-0.73l7 -2.57c23.44,-10.04 46.04,-29.34 63.6,-47.11l458.85 -458.88c23.33,-23.33 75.04,-69.73 90.59,-92.96z"/>
   <path fill="black" d="M9.41 1496.6c0,57.36 12.63,86.18 48.89,125.24l114.5 111.4c11.23,10.12 7.84,10.25 16.76,20.9l59.93 57.73c19.85,14.9 18.91,24.37 39.65,40.37l74.57 76.04c10.64,8.94 10.76,5.52 20.89,16.76l213.11 215.16 222.34 -224.76 -150.57 -152.92c-52.13,-52.13 -100.82,-100.82 -152.95,-152.95 -26.7,-26.7 -239.43,-245.72 -266.27,-260.84 -48.69,-27.42 -100.87,-32.53 -150.88,-8.06 -28.97,14.17 -63.1,46.21 -75.4,75.2 -7.83,18.44 -14.56,35.33 -14.56,60.75z"/>
   <path fill="black" d="M861.25 644.76c0,34.46 1.49,46.67 12.99,71.73 19.48,42.47 70.15,84.35 108.2,122.4 38.89,38.9 445.6,450.35 467.1,464.75l222.35 -220.03c-16.35,-23.88 -434.42,-436.77 -484.73,-487.09 -54.65,-54.64 -98.64,-112.99 -180.76,-103.18 -25.12,3 -57.67,13.47 -73.29,25.62l-25.91 21.14c-25.28,25.25 -45.95,65.7 -45.95,104.65z"/>
   <path fill="black" d="M2179.01 1491.89c5.49,20.56 33.23,40.29 48.24,55.3 33.63,33.63 142.16,146.87 163.55,161.19 22.43,-15.02 496.48,-494.15 540.05,-537.69 29.09,-29.07 61.39,-60.86 67.3,-111.66 12.03,-103.43 -60.41,-181.29 -159.88,-174.23 -53.83,3.81 -86.94,32.32 -116.85,62.33l-362.38 362.38c-30.96,30.96 -58.47,58.47 -89.42,89.42 -23.33,23.33 -75.04,69.72 -90.6,92.95z"/>
   <path fill="black" d="M1350.7 668.29l210.63 212.94c23.39,-7.2 144.98,-137.92 164.71,-157.65l400.07 -399.99c86.59,-85.03 43.07,-214.22 -25.65,-245.04 -120.23,-53.93 -171.3,8.93 -249.71,87.34l-301.2 301.21c-65.07,65.07 -140.03,133.53 -198.85,201.19z"/>
   <path fill="black" d="M1744.87 2446.1c6.7,9.42 27.45,35.55 35.41,42.22 41.96,35.12 14.2,13.26 37.38,37.92l234.37 231.55c26.12,33.12 22.53,20.49 38.66,36.63l54.16 58.8c17.32,19.12 10.35,1.49 38.16,37.13l59.2 58.47c11.92,9.02 26.67,29.34 60.64,57.23 17.77,14.58 14.3,9.84 30.79,16.55 1.2,0.49 8.11,3.58 12.69,5.32 39.88,15.21 81.83,7.58 120.63,-10.33 41.13,-18.99 83.85,-82.88 83.85,-132.64 0,-88.94 -58.63,-126.88 -121.19,-189.43 -38.89,-38.9 -445.59,-450.35 -467.09,-464.75l-217.66 215.32z"/>
   <path fill="black" d="M2596.71 1594.27c12.25,22.12 17.61,26.04 36.15,41.48l116.73 118.58c8.75,7.93 12.65,9.25 20.22,17.44l410.32 397.03c0.58,0.26 1.83,0.81 2.43,1.08 27.68,12.73 62.47,18.15 91.97,10.25l51.76 -18.85c9.17,-4.83 13.72,-11.17 21.06,-18.67 29.17,-29.78 55.3,-53.42 55.3,-114.19 0,-29.53 -4.43,-43.74 -12.95,-62.35 -8.58,-18.74 -18.49,-30.58 -29.34,-45.96 -12.76,-18.08 -60.64,-59 -78.48,-76.83l-114.64 -115.97c-16.9,-13.33 -19.28,-24.64 -39.63,-40.38 -20.2,-15.64 -17.51,-22.6 -37.57,-37.73l-59.86 -57.81c-7.16,-7.93 -6.81,-11.47 -16.96,-20.69 -41.58,-37.84 -104.27,-106.28 -138.48,-134.49 -16.11,-13.28 -16.4,-27.8 -60.39,-57.26l-217.65 215.33z"/>
   <path fill="black" d="M1336.58 1506.01l185.48 191.03c7.52,9.08 22.02,19.43 31.01,25.46 21.83,-14.62 441.39,-439.2 504.75,-502.39 12.47,-12.43 26.91,-20.64 31.77,-38.83l-116.61 -118.7c-4.32,-3.94 -3.28,-2.66 -7.53,-6.59l-7.16 -6.96c-9.24,-9.66 -14.25,-16.85 -25.48,-26.28 -16.78,-14.09 -11.91,-10.27 -25.69,-26.08 -9.5,-10.91 -17.99,-19.57 -29.31,-27.16 -22.92,6.12 -255.83,248.77 -271.79,264.73 -23.75,23.75 -256.09,251.87 -269.43,271.78z"/>
   <path fill="black" d="M2163.72 2328.44c5.28,16.55 66.17,76.28 77.1,85.26l54.76 53.48c20.03,22.03 61.95,67.66 85.8,83.63l467.1 -469.45c99.87,-99.87 68.99,-61.79 15.61,-126.21l-162.68 -162.04 -537.69 535.34z"/>
   <path fill="black" d="M903.61 2466.1l176.9 176.07c8.7,7.2 9.08,9.49 15.4,17.54 12.86,16.39 22.9,19.03 34.26,31.63l94.77 98.18c13.59,16.22 20.84,13.87 34.44,31.45 7.05,9.12 5.48,9.69 14.8,18.13 9.57,8.67 10.1,6.18 18.44,14.5l133.38 130.18 221.19 -221.19 -521.22 -523.57c-13.76,9.41 -216.51,205.14 -222.36,227.08z"/>
   <path fill="black" d="M498.87 1520.13l212.92 215.36 541.25 -538.91c-8.11,-10.65 -17.82,-15.51 -28.32,-25.8l-184.64 -187.15c-48.68,32.6 -408.99,401.94 -474.15,467.09 -19.44,19.44 -53.43,49.06 -67.06,69.42z"/>
   <polygon fill="black" points="1754.28,1608.38 2276.68,2133.12 2499.04,1910.75 1977.81,1387.18 "/>
   <path fill="black" d="M1323.63 2344.89l214.16 216.49 538.85 -536.51c-9.4,-13.74 -196.03,-207.18 -217.66,-212.96l-535.35 532.97z"/>
   <path fill="black" d="M1769.56 762.42c4.02,15.07 13.82,26.77 24.57,36.62l132.16 131.39c34.91,28.61 14.62,15.3 32.6,33.28l67.59 64.19c14.26,17.11 13.37,17.6 30.26,30.92l196.44 198.9c8.84,7.74 9.71,6.78 17.67,15.26 9.7,10.34 3.03,7.58 16.41,16.54 21.39,-14.32 129.91,-127.56 163.55,-161.19 15.41,-15.41 36.67,-44.99 57.66,-50.59 -6.93,-25.94 -49.92,-56.57 -59.25,-67.82 -6.78,-8.19 -5.79,-9.84 -14.84,-18.12 -9.59,-8.78 -9.85,-6.23 -18.72,-14.22 -14.6,-13.17 -12.39,-19.45 -31.61,-34.28l-50.4 -48.44c-6.68,-6.06 -8.77,-10.68 -14.84,-18.1 -13.01,-15.92 -22.55,-17.35 -34.32,-31.56l-115.55 -115.06c-6.7,-6.04 -8.78,-10.67 -14.84,-18.1l-99.48 -98.18c-18.68,-14.42 -16.34,-18.36 -31.9,-33.98 -10.29,-10.34 -25.12,-21.5 -36.66,-29.23 -14.08,21.02 -125.85,128.19 -158.83,161.19 -15.42,15.41 -36.68,44.99 -57.66,50.6z"/>
   <path fill="black" d="M917.73 1614.25c7.09,26.54 50.67,56.71 59.28,67.79l112.91 112.99c10.02,8.3 8.16,8.47 15.35,17.58l66.68 65.1c16.26,12.82 13.82,18.57 29.49,31.7l32.64 33.25c11.77,12.69 23.7,16.94 34.71,31.17l65.89 65.89c14.24,11 18.49,22.94 31.18,34.71l33.25 32.65c15.6,18.57 25.77,12.44 31.61,34.28 22.17,-5.93 217.55,-208.73 225.9,-221.19l-518.87 -516.52c-36.65,23.98 -191.65,203.03 -220.02,210.61z"/>
   <path fill="black" d="M4447.44 1355.41l0 771.83c0,104.1 -8.01,243.56 0.24,343.31 8.89,107.42 0.89,229.78 4.3,343.96l19.23 587.88c1.77,21.87 8.67,58.35 9.16,80.26l23.28 -160.26 9.65 -423.32c-0.08,-35.31 4.54,-55.29 4.9,-84.52 8.65,-700.06 8.65,-1446.39 0,-2146.45 -0.36,-28.61 -5.04,-45.61 -4.91,-79.81 0.28,-73.57 -1.78,-277.83 -8.71,-339.55l-5.64 -168.49c-1.78,-21.86 -8.68,-58.34 -9.17,-80.25l-22.84 156c-2.95,26.26 0.78,57.26 -0.66,84.05 -7.86,145.55 -6.62,283.76 -14.17,423.52 -6.11,113.14 7.84,238.93 -3.99,344.27l-0.69 347.58z"/>
   <path fill="black" d="M8071.29 3506.18l70.59 0 0 -357.68 257.44 293.21c8.75,10.35 8.82,12.89 19,23.35 47.6,48.9 9.28,41.12 104.77,41.12l0 -480.03 -70.6 0 0 362.38c-16.96,-11.36 -63.54,-68.61 -81.11,-88.32l-115.86 -138.27c-7.3,-9.03 -12.92,-13.11 -20.21,-22.15 -14.29,-17.73 -87.32,-113.64 -102.84,-113.64l-61.18 0 0 480.03z"/>
   <path fill="black" d="M7073.55 3153.21c0,58.66 22.09,101.4 68.92,128.74 22.98,13.4 36.97,17.51 72.15,17.27 88.23,-0.58 203.78,-15.17 230.74,37.58 23.4,45.75 -8.84,98.79 -61.2,98.79l-310.62 0 0 70.59 320.02 0c129.55,0 183.19,-182.33 66.95,-255.19 -92.99,-58.29 -262.51,16.87 -305.23,-52.46 -28.78,-46.7 4.29,-101.79 59.45,-101.79l310.62 0 0 -70.59 -329.44 0c-58.9,0 -122.36,67.44 -122.36,127.07z"/>
   <path fill="black" d="M2188.42 654.18c17.1,32.31 21.06,25.34 37.87,42.13 4.85,4.84 7.81,9.68 12.8,15.43l109.56 106.94c22.41,22.38 27.34,32.63 56.25,51.99 15.31,-10.25 140.44,-134.46 154.54,-156.08 41.91,-64.25 39.1,-147.05 -12.08,-198.17 -35.74,-35.7 -65.82,-45.78 -118.94,-45.78 -62.84,0 -102.59,43.76 -135.31,76.48 -26.1,26.11 -87.51,81.38 -104.71,107.07z"/>
   <path fill="black" d="M3016.73 1477.77c5.91,25.34 56.42,66.36 75.97,84.05l108.66 112.54c8.81,8.12 22.61,18.4 31.87,24.61 43.09,-64.35 196.88,-150.82 181.92,-261.62 -17.45,-129.18 -141.52,-178.81 -247.71,-110.09 -15.33,9.92 -140.14,134.73 -150.7,150.5z"/>
   <path fill="black" d="M1726.04 3288.53l140.25 139.76c40.3,30.13 88.44,46.71 139.63,31.99 16.1,-4.63 7.88,-2.63 17.07,-6.59 36.3,-15.64 67.28,-36.77 87.21,-77.5 28,-57.26 22.42,-108.11 -11.98,-161 -12.77,-19.61 -30.65,-34.59 -47.45,-51.39 -24.71,-24.71 -81.28,-75.56 -97.65,-100.01l-227.07 224.74z"/>
   <path fill="black" d="M-0 2080.18c0,54.85 21.24,93.55 63.02,125.23 41.66,31.58 88.17,33.26 130.9,21.85 52.38,-13.97 75.04,-46.6 108.45,-80.01 23.79,-23.79 77.12,-71.66 92.95,-95.3 -5.3,-19.84 -83.11,-90.17 -102.36,-109.42 -26.56,-26.56 -83.34,-89.6 -109.42,-107.07 -17.67,11.84 -135.25,129.08 -158.09,161.94 -12.68,18.25 -25.45,53.65 -25.45,82.79z"/>
   <path fill="black" d="M2582.59 2431.98c6.54,21.29 32.44,39.51 47.05,54.11 18.4,18.4 33.36,33.36 51.77,51.77 54.32,54.33 69.62,74.12 151.77,74.12 63.99,0 145.9,-70.86 145.9,-155.31 0,-74.84 -31.57,-99.82 -69.42,-137.65 -18.4,-18.4 -33.36,-33.37 -51.77,-51.78 -15.42,-15.41 -36.68,-44.99 -57.66,-50.59l-217.65 215.32z"/>
   <path fill="black" d="M964.79 3059.09c79.29,0 97.08,-19.43 156.48,-78.84 25.65,-25.64 85.44,-79.44 102.36,-104.71l-212.92 -215.35c-21.95,14.32 -157.69,147.75 -173.78,191.03 -43.48,116.91 51.55,207.87 127.86,207.87z"/>
   <path fill="black" d="M1289.52 211.78c0,54.54 16.71,98.79 53.41,134.85l116.02 114.58c21.93,-5.86 212.96,-204.19 221.19,-216.49 -6.43,-9.61 -12.21,-15.22 -20.78,-26.28l-78.85 -76.47c-20.73,-25.15 -39.76,-44.51 -66.19,-55.44 -0.56,-0.23 -1.83,-0.68 -2.4,-0.93 -46.17,-19.91 -76.65,-21.34 -125.02,-2.41l-41.49 24.47c-27.76,23.91 -55.9,66.91 -55.9,104.11z"/>
   <path fill="black" d="M437.68 1068.32c0,89.47 42.73,113.11 92.92,170.63 10.8,12.38 18.08,14.15 27.84,23.93 11.01,11.04 9.84,15.91 24.44,27.32 18.77,14.69 12.43,5.26 24.23,27.55l222.35 -220.03c-9.83,-14.35 -133.19,-139.46 -152.44,-151.08l-6.01 -3.4c-16.26,-9.62 -14.11,-11.03 -41.08,-17.59 -36.58,-8.91 -72.44,-2.61 -108.86,13.57l-29.84 22.65c-26.19,26.42 -53.56,56.64 -53.56,106.46z"/>
   <path fill="black" d="M7591.24 3506.18l418.86 0c0,-48.62 6.79,-70.59 -14.12,-70.59l-334.14 0 0 -338.86 334.14 0c20.91,0 14.12,-21.96 14.12,-70.59l-418.86 0 0 480.03z"/>
   <path fill="black" d="M9045.48 3506.18l418.86 0c0,-48.62 6.8,-70.59 -14.12,-70.59l-334.14 0 0 -338.86 334.14 0c20.92,0 14.12,-21.96 14.12,-70.59l-418.86 0 0 480.03z"/>
   <path fill="black" d="M10269.12 3421.47c27.97,-18.74 61.28,-75.28 89.42,-94.13 14.02,9.39 14.79,12.29 25.53,26.24l74.53 85.48c11.25,11.56 12.78,16.76 23.48,28.28 5.98,6.43 8.25,7.79 13.59,14.65 29.07,37.32 29.92,24.18 112.3,24.18 -33.93,-50.66 -178.76,-204.74 -202.38,-240.02l177.67 -208.26c8.37,-8.95 18.4,-22.33 24.71,-31.76 -95.69,0 -86.22,-9.29 -112.34,24.15l-190.05 224.1c-13.74,14.43 -34.66,34.52 -36.62,52.8 -2.57,24.07 0.15,68.02 0.15,94.27z"/>
   <polygon fill="black" points="10132.64,3506.18 10203.24,3506.18 10203.24,3026.15 10132.64,3026.15 "/>
   <path fill="black" d="M8574.86 3096.73l404.74 0c10.85,0 14.12,-3.27 14.12,-14.12l0 -56.47 -418.86 0 0 70.59z"/>
   <path fill="black" d="M9525.53 3096.73l404.74 0c10.85,0 14.12,-3.27 14.12,-14.12l0 -56.47 -418.86 0 0 70.59z"/>
   <path fill="black" d="M2437.86 1755.44c0,14.54 37.52,44.58 48.24,55.3 18.2,18.2 34.84,39.24 55.3,52.94 21.4,-5.72 44.18,-37.13 60,-52.94 70.17,-70.17 70.31,-49.7 2.35,-117.65 -15.41,-15.42 -36.67,-44.99 -57.65,-50.6 -10.51,7.03 -108.25,99.05 -108.25,112.95z"/>
   <path fill="black" d="M2008.43 2177.85c5.03,15.66 12.87,21.45 24.02,30.06l85.37 84.05c12.16,-8.15 107.92,-98.8 112.96,-117.66l-107.09 -109.4 -115.26 112.95z"/>
   <path fill="black" d="M1584.86 2601.43c8.46,28.53 38.78,46.63 49.45,56.39 12.93,11.83 11.27,17.13 23.64,28.13 14.06,12.49 21.23,8.39 26.9,29.58 19.8,-1.65 21.75,-9.51 34.16,-22.32l88.21 -90.63c-8.19,-12.24 -94.33,-103.27 -112.96,-108.25l-109.4 107.09z"/>
   <path fill="black" d="M1595.43 1769.56l79.97 80.05c10.59,12.29 13.95,18.61 28.27,28.2l114.1 -111.8c-5.9,-19.36 -96.94,-105.76 -109.4,-114.1l-98.2 99.46c-13.1,11.93 -4.47,-1.23 -14.75,18.2z"/>
   <path fill="black" d="M2022.55 1340.14c6.64,21.7 34.38,41.43 49.39,56.45 18.2,18.2 34.85,39.24 55.3,52.94 17.67,-4.72 105.85,-95.32 117.66,-112.96l-107.09 -109.39 -115.26 112.95z"/>
   <path fill="black" d="M1181.27 1355.41l108.25 108.25c12.16,-8.15 107.92,-98.8 112.96,-117.66l-102.39 -104.68c-19.57,5.95 -110.54,101.75 -118.81,114.1z"/>
   <path fill="black" d="M1608.4 925.98c6.75,22.13 36.33,43.39 51.74,58.81 18.2,18.2 39.25,34.84 52.95,55.29l118.8 -116.5 -108.25 -110.55 -115.25 112.95z"/>
   <path fill="black" d="M1171.87 2183.72c2.37,28.49 39.87,51.4 50.7,62.24 13.51,13.51 9.49,16.88 26.54,29.95 19.21,14.72 15.11,9.04 26.3,30.18l118.8 -116.51 -108.25 -110.55c-21.61,14.85 -38.25,35.89 -56.45,54.1 -15.41,15.41 -36.67,44.99 -57.65,50.6z"/>
   <path fill="black" d="M756.56 1777.83c29.06,42.81 40.06,40.93 54.16,56.39 12.3,13.5 7.74,14.89 24.23,27.53 19.22,14.73 15.12,9.04 26.3,30.18l118.81 -116.5 -108.25 -110.55 -115.26 112.95z"/>
   <polygon fill="black" points="9991.45,3506.18 10062.05,3506.18 10062.05,3162.62 9991.45,3162.62 "/>
   <polygon fill="black" points="8748.99,3506.18 8819.59,3506.18 8819.59,3162.62 8748.99,3162.62 "/>
   <polygon fill="black" points="9699.66,3506.18 9770.26,3506.18 9770.26,3162.62 9699.66,3162.62 "/>
   <path fill="black" d="M9181.97 3299.11l282.38 0 0 -56.47c0,-10.85 -3.27,-14.12 -14.12,-14.12l-268.26 0 0 70.59z"/>
   <path fill="black" d="M7727.73 3299.11l282.38 0 0 -56.47c0,-10.85 -3.27,-14.12 -14.12,-14.12l-268.26 0 0 70.59z"/>
   <polygon fill="black" points="9991.45,3096.73 10062.05,3096.73 10062.05,3026.15 9991.45,3026.15 "/>
  </g>
 </g>
</svg>
