<?xml version="1.0" encoding="UTF-8"?>
<!DOCTYPE svg PUBLIC "-//W3C//DTD SVG 1.1//EN" "http://www.w3.org/Graphics/SVG/1.1/DTD/svg11.dtd">
<!-- Creator: CorelDRAW 2018 (64-Bit Evaluation Version) -->
<svg xmlns="http://www.w3.org/2000/svg" xml:space="preserve" width="158.765mm" height="158.765mm" version="1.1" style="shape-rendering:geometricPrecision; text-rendering:geometricPrecision; image-rendering:optimizeQuality; fill-rule:evenodd; clip-rule:evenodd"
viewBox="0 0 9925.05 9925.05"
 xmlns:xlink="http://www.w3.org/1999/xlink">
 <defs>
  <style type="text/css">
   <![CDATA[
    .fil0 {fill:#004494;fill-rule:nonzero}
   ]]>
  </style>
 </defs>
 <g id="Layer_x0020_1">
  <metadata id="CorelCorpID_0Corel-Layer"/>
  <g id="_2568283930432">
   <path class="fil0" d="M4962.53 9925.05c1325.53,0 2571.67,-516.21 3509.03,-1453.58 937.31,-937.3 1453.49,-2183.44 1453.49,-3508.95 0,-1325.59 -516.19,-2571.72 -1453.49,-3509.03 -937.36,-937.15 -2183.5,-1453.49 -3509.03,-1453.49 -1325.58,0 -2571.68,516.34 -3509.02,1453.49 -937.32,937.32 -1453.51,2183.44 -1453.51,3509.03 0,1325.51 516.19,2571.65 1453.51,3508.95 937.34,937.37 2183.44,1453.58 3509.02,1453.58zm-4683.42 -4962.53c0,-1250.99 487.01,-2427.13 1371.67,-3311.76 884.66,-884.66 2060.74,-1371.76 3311.75,-1371.76 1250.97,0 2427.09,487.1 3311.79,1371.76 884.53,884.63 1371.65,2060.77 1371.65,3311.76 0,1251.03 -487.12,2427.13 -1371.65,3311.72 -884.7,884.62 -2060.82,1371.76 -3311.79,1371.76 -1251.02,0 -2427.09,-487.14 -3311.75,-1371.76 -884.66,-884.59 -1371.67,-2060.69 -1371.67,-3311.72z"/>
   <path class="fil0" d="M4962.56 9604.62c1239.94,0 2405.65,-482.84 3282.4,-1359.65 876.86,-876.7 1359.65,-2042.43 1359.65,-3282.46 0,-1240.02 -482.8,-2405.69 -1359.65,-3282.5 -876.74,-876.83 -2042.45,-1359.63 -3282.4,-1359.63 -1240.03,0 -2405.78,482.8 -3282.48,1359.63 -876.85,876.81 -1359.69,2042.48 -1359.69,3282.5 0,1240.03 482.84,2405.77 1359.69,3282.46 876.7,876.81 2042.45,1359.65 3282.48,1359.65zm-4493.33 -4642.11c0,-2477.63 2015.68,-4493.26 4493.33,-4493.26 2477.61,0 4493.25,2015.64 4493.25,4493.26 0,2477.64 -2015.64,4493.3 -4493.25,4493.3 -2477.66,0 -4493.33,-2015.66 -4493.33,-4493.3z"/>
   <path class="fil0" d="M2719.67 8447.82c-101.27,-67.37 -209.55,-146.08 -320.59,-235.12 -110.63,-98.38 -254.35,-234.21 -413.75,-410.68 -362.63,-400.4 -803.06,-1038.64 -986.19,-1849.22 -190.92,-808.95 -73.42,-1576.17 96.64,-2088.81 168.71,-518.81 361.96,-803.03 346.5,-812.14 -11.32,-10.39 -233.7,261.33 -427.13,784.4 -130.2,344.96 -234.1,814.12 -229.66,1336.97 -6.66,514.18 94.78,1159.91 417.03,1779.2 389.23,765.94 1001.63,1281.47 1471.11,1567.19 474.7,289.98 812.15,378.7 815.72,363.69 6.62,-16.59 -315.54,-132.46 -769.67,-435.49z"/>
   <path class="fil0" d="M9195.98 5068.45c-10.46,-481.67 -110.69,-911.98 -233.42,-1233.89 -195.22,-522.21 -418.54,-793.27 -429.89,-782.77 -15.33,9.06 178.94,292.54 349.24,810.85 171.89,512.1 291.95,1278.93 103.72,2088.49 -180.47,811.22 -618.74,1450.75 -980.11,1852.44 -112.81,125.86 -217.74,230.95 -308.68,316.8 -149.88,128.44 -297.1,237.7 -432.05,327.46 -454,303.06 -776.26,418.91 -769.61,435.49 3.46,15.02 341.01,-73.69 815.68,-363.69 469.56,-285.73 1081.77,-801.25 1471.17,-1567.17 344.43,-662.11 436.6,-1354.51 413.95,-1884z"/>
  </g>
  <g id="_2568283930112">
   <path class="fil0" d="M840.92 3671.71c-6.88,6.51 -12.44,13.37 -16.63,20.58 -4.39,7.23 -8.01,15.5 -11.12,24.66 -16.14,48.14 -5.56,96.13 31.8,144.14 19.72,24.99 43.84,46.58 72.54,64.86 28.67,18.35 62.96,34.23 102.9,47.66 37.3,12.57 72.14,20 104.45,22.36 32.31,2.27 62.04,-0.62 89.25,-8.82 55.36,-16.32 91.35,-49.31 108.02,-98.95 9.83,-28.91 10.61,-56.77 2.43,-83.43 -7.28,-25.45 -24.17,-51.98 -50.48,-79.7l-29.04 23.99c17.53,17.84 29.46,35.05 35.83,51.67 5.7,17.99 5.34,36.34 -0.94,55 -10.98,32.73 -37.93,51.1 -80.85,55.23 -21.74,1.49 -46.82,-0.31 -75.38,-5.36 -28.47,-5.03 -60.25,-13.47 -95.36,-25.29 -68.7,-23.14 -118.05,-47.33 -148.22,-72.55 -15.02,-12.68 -24.86,-25.72 -29.56,-39.13 -4.58,-13.43 -4.39,-27.81 0.84,-43.2 5.62,-16.85 15.7,-29.39 30.1,-37.66 14.38,-8.23 33.68,-12.17 58.03,-11.87l15.1 0.75c7.68,-0.09 13.57,-1.21 17.84,-3.2 4.13,-2.03 7.1,-5.4 8.65,-10.28l4.92 -14.47 -118.54 -39.85 -4.83 14.48c-0.86,3.86 -0.9,7.88 -0.2,12.04 0.56,2.67 1.02,4.99 1.28,7.24 0.36,2.16 0.36,3.81 -0.09,4.85 -0.59,1.78 -8.14,9.88 -22.74,24.26z"/>
   <path class="fil0" d="M936.89 3419.19l-46.22 104.05 12.55 6c2.76,1.24 6.07,1.41 9.86,0.53 3.75,-0.82 7.28,-2.29 10.48,-4.43 1.54,-1.08 3.48,-2.54 5.89,-4.26 2.45,-1.66 4.14,-2.8 5.14,-3.39 5.67,-3.09 12.53,-3.66 20.57,-1.88 4.83,0.61 10.03,1.78 15.86,3.41 5.69,1.64 12.7,4.34 20.93,7.96l301.38 135.79c8.76,3.86 15.86,7.25 21.33,10.23 5.56,2.98 9.76,5.45 12.7,7.52 6.04,4.5 10.03,9.29 11.8,14.33 0.53,1.26 0.91,3.04 1.3,5.34 0.38,2.28 0.73,4.52 0.95,6.77 1.37,7.83 5.51,13.41 12.48,16.5l14 6.22 43.55 -98.1 -13.96 -6.26c-6.2,-2.69 -13.5,-1.08 -21.88,4.74l-9.13 5.14c-5.31,2.71 -11.69,3.18 -19.27,1.3 -7.52,-1.85 -19.59,-6.44 -36.04,-13.72l-275.21 -122.27 1.13 -5.91 438.18 -6.86 16.23 -36.52 -389.2 -172.83c-16.76,-7.39 -28.34,-13.45 -34.93,-18.1 -6.46,-4.7 -10.21,-9.66 -11.25,-14.93l-3.31 -9.46c-1.17,-4.83 -2.58,-8.53 -4.19,-11.2 -1.68,-2.54 -4.13,-4.63 -7.52,-6.13l-12.77 -5.69 -40.82 92.11 12.66 5.6c6.15,2.76 12.92,2.08 20.29,-2.03l8.78 -3.42c5.4,-2.47 12.55,-2.51 21.32,-0.11 5.61,1.08 11.17,2.45 16.63,4.13 5.47,1.7 11.6,4.06 18.35,7.06l199.7 88.68 -1.63 8.05 -346.71 6.04z"/>
   <path class="fil0" d="M1220.23 2959.75c15.68,-5.47 35.44,-5.75 59.19,-0.86l14.8 3.46c7.5,1.36 13.5,1.41 18.02,0.22 4.56,-1.24 8.05,-4.04 10.54,-8.47l7.45 -13.37 -109.1 -61.13 -7.5 13.39c-1.5,3.55 -2.27,7.54 -2.31,11.71 0.04,2.71 0,5.18 -0.14,7.39 -0.09,2.16 -0.44,3.77 -0.99,4.78 -0.86,1.66 -9.86,8.16 -26.89,19.54 -7.91,5.18 -14.6,10.9 -20.15,17.22 -5.56,6.31 -10.68,13.72 -15.46,22.19 -24.81,44.17 -23.31,93.42 4.56,147.5 14.65,28.16 34.45,53.87 59.19,77.21 24.81,23.33 55.55,45.27 92.34,65.85 34.29,19.25 67.15,33.02 98.47,41.31 31.32,8.27 61.16,10.91 89.43,7.9 57.32,-5.8 98.85,-31.49 124.43,-77.14 15,-26.66 20.89,-53.86 17.89,-81.6 -2.47,-26.37 -14.13,-55.53 -34.85,-87.64l-32.94 18.15c13.8,20.8 22.34,39.94 25.58,57.38 2.23,18.77 -1.48,36.72 -11.07,53.92 -16.94,30.13 -46.82,43.2 -89.78,39.28 -21.61,-2.54 -46,-9.02 -73.04,-19.25 -27.06,-10.23 -56.72,-24.41 -89.03,-42.52 -63.14,-35.46 -107.29,-68.37 -132.15,-98.84 -12.46,-15.17 -19.74,-29.79 -21.85,-43.82 -2.05,-14.07 0.91,-28.18 8.8,-42.28 8.73,-15.52 20.93,-26.02 36.56,-31.47z"/>
   <path class="fil0" d="M1718.5 2991.56c-16.72,-10.74 -32.26,-14.87 -46.65,-12.27 -8.03,1.39 -14.95,4.06 -20.59,7.98 -5.7,3.88 -11.07,9.73 -16.1,17.54 -3.7,5.82 -6.04,11.71 -6.95,17.6 -0.99,5.86 -0.59,11.98 0.95,18.35 1.48,6.4 4.1,11.73 7.85,16.03 3.66,4.34 8.91,8.65 15.72,13.03 5.98,3.9 11.58,6.53 16.6,7.87 5.09,1.33 10.26,1.33 15.57,-0.09 5.29,-1.39 10.5,-3.97 15.68,-7.68 5.16,-3.73 10.5,-8.84 16.1,-15.43 7.19,6.02 13.87,12.63 20.12,19.78 6.24,7.24 11.58,15.02 15.98,23.31 4.3,8.36 8.05,17.29 11.03,26.77 2.93,9.48 5.56,20.64 7.83,33.35l23.57 -8.36c-9.84,-39.92 -21.04,-73.59 -33.56,-101 -12.62,-27.44 -27.06,-46.4 -43.16,-56.79z"/>
   <path class="fil0" d="M1489.05 2476.74l-70.51 89.38 10.72 8.83c2.34,1.87 5.47,2.89 9.35,2.99 3.83,0.16 7.67,-0.44 11.33,-1.69 1.72,-0.71 3.94,-1.54 6.7,-2.65 2.76,-1.06 4.7,-1.74 5.87,-2.03 6.2,-1.57 13.01,-0.49 20.42,3.26 4.48,1.81 9.26,4.23 14.43,7.21 5.16,3.03 11.29,7.33 18.35,12.93l258.45 206.13c7.5,5.89 13.52,10.96 18.09,15.17 4.65,4.26 8.13,7.7 10.43,10.43 4.79,5.89 7.46,11.47 7.92,16.87 0.18,1.26 0.13,3.13 -0.09,5.47 -0.23,2.29 -0.42,4.57 -0.69,6.75 -0.68,8.03 1.94,14.4 7.92,19.14l12.02 9.44 66.52 -84.24 -11.98 -9.53c-5.33,-4.15 -12.75,-4.43 -22.41,-0.84l-10.12 2.66c-5.73,1.37 -12.11,0.2 -18.94,-3.41 -6.86,-3.66 -17.4,-11.1 -31.58,-22.32l-236.37 -186.47 2.58 -5.49 426.3 101.84 24.72 -31.38 -334.38 -263.76c-14.27,-11.36 -24.08,-20.09 -29.24,-26.24 -5.18,-6.11 -7.63,-11.91 -7.21,-17.22l-0.95 -10c0.04,-4.98 -0.38,-8.86 -1.23,-11.84 -0.99,-2.98 -2.84,-5.53 -5.78,-7.85l-10.93 -8.65 -62.37 79.15 10.9 8.56c5.24,4.13 11.97,5.21 20.2,3.11l9.31 -1.21c5.78,-1.06 12.75,0.66 20.62,5.23 5.28,2.36 10.26,5.01 15.13,8.03 4.88,3.02 10.21,6.77 16.06,11.36l171.49 135.34 -3.62 7.38 -337.4 -79.86z"/>
   <path class="fil0" d="M2061.75 2344.7l-71.63 75.27 -93.31 -158.74 164.94 83.47zm-276.31 -226.31c-1.85,2.03 -1.99,7.79 -0.04,17.27 0.24,3.41 0.51,6.79 0.99,10.03 0.46,3.28 0.81,5.89 1.19,7.81l1.3 20.9c0.4,2.6 0.78,8.11 1.13,16.41 0.51,7.21 1.37,11.35 2.54,12.46l6.02 5.31 7.03 4.21 26.09 13.38 168.11 294.99 6.77 11.18c6.64,10.48 11.25,19.85 13.65,28.1 2.43,8.2 3.24,15.63 2.43,22.27l-2.43 9.06c-1.63,7.5 -0.56,12.95 3.11,16.47l13.17 12.53 77.81 -81.84 -13.14 -12.48c-4.13,-3.99 -9.26,-5.03 -15.37,-3.06l-4.3 1.59c-8.21,1.83 -14.36,2.16 -18.57,1.01 -4.23,-1.13 -8.66,-3.93 -13.4,-8.4l-6.33 -7.5 -7.23 -12.11 -22.65 -37.82 90.75 -95.4 44.15 23.75 13.7 7.85c0.86,0.4 2.49,1.34 4.92,2.63 2.4,1.41 4.03,2.51 5.11,3.51 4.56,4.34 5.65,12.06 3.31,23.27 -0.9,4.63 -0.9,8.13 -0.19,10.6 0.73,2.43 2.4,4.83 4.81,7.24l13.14 12.52 105.37 -110.82 -13.1 -12.46c-3.53,-3.31 -9.7,-3.59 -18.48,-0.71l-8.27 2.6c-13.05,3.31 -29.68,-0.88 -49.97,-12.52l-12.43 -6.55 -408.9 -197.51c-0.73,0 -1.3,0.13 -1.76,0.22z"/>
   <path class="fil0" d="M2173.49 1775.55c-2.67,2.95 -4.7,6.41 -6.16,10.38 -0.86,2.56 -1.72,4.83 -2.56,6.86 -0.81,2.08 -1.63,3.46 -2.49,4.24 -1.45,1.21 -11.97,4.41 -31.82,9.5 -9.22,2.29 -17.4,5.47 -24.77,9.57 -7.28,4.1 -14.55,9.42 -21.92,15.83 -38,33.56 -52.87,80.43 -44.5,140.7 4.61,31.48 14.73,62.28 30.36,92.47 15.63,30.17 37.43,61.09 65.35,92.7 25.98,29.55 52.42,53.41 79.26,71.54 26.82,18.19 54.1,30.56 81.71,37.05 56.08,13.5 103.77,3 142.99,-31.66 22.92,-20.2 37.56,-43.87 43.8,-71.03 6.41,-25.67 5.09,-57.12 -3.86,-94.24l-37.05 6.22c6.15,24.17 7.87,45.1 5.11,62.59 -4.04,18.46 -13.52,34.21 -28.29,47.24 -25.89,22.78 -58.4,25.22 -97.61,7.38 -19.63,-9.61 -40.49,-23.69 -62.61,-42.34 -22.14,-18.64 -45.45,-41.82 -70,-69.6 -47.85,-54.38 -78.57,-100.01 -91.96,-136.93 -6.77,-18.44 -8.76,-34.66 -6.09,-48.6 2.69,-13.96 10.12,-26.33 22.27,-37.05 13.41,-11.73 28.34,-17.66 44.88,-17.57 16.63,0.04 35.33,6.33 56.17,18.79l12.79 8.21c6.68,3.68 12.33,5.69 16.99,6.08 4.65,0.4 8.91,-1.12 12.7,-4.48l11.47 -10.12 -82.68 -93.8 -11.49 10.08z"/>
   <path class="fil0" d="M2376.49 1647.84c1.68,-4.83 2.36,-8.8 2.29,-11.87 -0.09,-3.09 -1.17,-6.17 -3.38,-9.17l-8.13 -11.25 -113.43 82.04 8.16 11.27c3.95,5.44 10.19,8.25 18.77,8.33 1.43,0.07 3.44,0.33 6.08,0.78 1.24,0.22 2.45,0.18 3.66,-0.16 5.43,0.38 11.27,3.93 17.69,10.43 4.23,3.5 8.1,7.15 11.52,10.96 3.48,3.75 7.96,9.5 13.52,17.18l192.57 268.65c5.6,7.7 10.1,14.23 13.37,19.54 3.26,5.38 5.69,9.66 7.15,12.88 3.02,6.97 4.06,13.1 3.02,18.39l-4.1 11.56c-2.89,7.48 -2.05,14.38 2.43,20.51l8.95 12.42 118.27 -85.5 -9.04 -12.42c-2.03,-2.8 -4.88,-4.72 -8.49,-5.85 -3.62,-1.11 -7.92,-1.44 -12.79,-1.06l-10.36 -0.15c-6.09,-0.46 -11.91,-3.42 -17.49,-8.69 -5.51,-5.31 -13.63,-15.31 -24.17,-29.95l-89.12 -123.15 114.24 -82.66 89.16 123.17c2.82,3.95 6.33,9.46 10.71,16.57 4.17,7.03 7.19,12.55 8.86,16.47 3.29,7.36 4.34,13.63 2.94,18.9l-3.71 10.88c-1.85,4.21 -2.58,7.98 -2.25,11.44 0.36,3.46 1.7,6.73 3.84,9.71l8.93 12.39 118.49 -85.7 -8.93 -12.35c-2.14,-3.04 -4.94,-5.08 -8.23,-6.09 -3.35,-0.99 -7.5,-1.43 -12.48,-1.26l-11.29 0.4c-5.73,-0.4 -11.36,-3.29 -17,-8.69 -5.6,-5.43 -13.74,-15.4 -24.35,-30.04l-193.69 -267.8c-10.72,-14.88 -17.67,-26.04 -21.02,-33.52 -3.24,-7.52 -4.28,-13.54 -3.07,-18.15l2.63 -10.03c0.71,-3.37 1.21,-6.28 1.39,-8.73 0.18,-4.12 -1.04,-7.98 -3.58,-11.55l-8.14 -11.3 -113.2 81.87 8.18 11.27c2.03,2.84 4.61,4.76 7.83,5.96 3.2,1.06 7,1.72 11.43,2.01l9.48 1.26c5.38,0.44 11.13,3.75 17.44,10.15 4.17,3.46 8.1,7.15 11.53,10.89 3.39,3.78 7.88,9.57 13.43,17.2l77.45 108.24 -113.66 82.24 -78.05 -107.75c-10.7,-14.84 -17.62,-25.94 -20.86,-33.39 -3.18,-7.37 -4.17,-13.5 -2.83,-18.49l1.41 -9.24z"/>
   <path class="fil0" d="M2964.83 1589.74c23.05,6.79 42.85,24.41 59.35,52.84 17.57,30.24 23.99,56.26 19.43,78.12 -4.66,21.81 -20.67,40.67 -48.01,56.61 -2.03,1.17 -4.46,2.25 -7.35,3.4 -2.83,1.14 -4.48,1.76 -4.81,2.03 -0.78,0.46 -1.89,1.11 -3.33,1.92 -1.19,0.66 -3.31,2.08 -6.41,4.08l-101.29 -174.49c1.85,-1.92 4.67,-3.93 8.51,-6.18 1.61,-0.97 2.67,-1.54 3.29,-1.92 0.99,-0.53 2.09,-1.21 3.31,-1.94 28.43,-16.41 54.19,-21.28 77.32,-14.47zm-99.37 -17.25c-2.67,0.97 -4.34,1.7 -5.16,2.18 -2.8,1.59 -5.56,3.18 -8.18,4.66l-99.69 -171.82c1.68,-1.73 3.88,-3.46 6.73,-5.12 1.24,-1.52 2.98,-2.64 5.21,-3.38 24.99,-14.57 47.3,-17.86 66.93,-9.95 11.2,3.66 21.41,9.95 30.59,18.75 9.17,8.91 17.95,20.57 26.31,35 8.85,15.17 15.04,29.13 18.62,41.79 3.61,12.62 4.83,24.11 3.84,34.33 -1.54,10.23 -5.51,19.61 -11.85,27.93 -6.41,8.4 -15.68,16.1 -27.96,23.24 -0.95,0.62 -2.8,1.37 -5.38,2.38zm107.96 -106.04c3.66,-26.02 -1.94,-51.76 -16.8,-77.39 -22.23,-38.24 -51.65,-58.42 -88.44,-60.36 -18.65,-1.26 -39.67,2.27 -63.01,10.45 -23.36,8.2 -50.28,21.15 -80.67,38.77l-87.75 50.99 6.68 12.2c3.35,5.78 9.35,9.13 17.9,10.03l9.95 1.94c5.36,0.88 10.83,4.78 16.43,11.73 3.86,3.93 7.33,7.96 10.41,12.04 3.02,4.13 6.95,10.32 11.71,18.53l164.76 286.58c4.78,8.16 8.49,15.13 11.25,20.77 2.76,5.63 4.69,10.15 5.82,13.52 2.28,7.19 2.67,13.43 1.11,18.57 -0.33,1.33 -0.99,3.07 -2.09,5.29 -0.71,1.19 -1.68,3.11 -3.07,5.78 -3.61,7.23 -3.53,14.1 0.36,20.73l7.7 13.19 106.61 -61.88c41.11,-23.84 69.23,-43.6 84.42,-59.43 15.18,-15.75 26.42,-33.79 33.7,-54.07 2.27,-9.46 3.79,-18.26 4.43,-26.56 0.64,-8.29 0.38,-16.5 -0.86,-24.61 -2.11,-17 -8.18,-34.14 -18.12,-51.43 -8.41,-14.42 -18.11,-26.13 -29,-35.06 -10.94,-8.91 -23.38,-15.48 -37.34,-19.74 -14.05,-4.21 -29.77,-5.98 -47.3,-5.31 -17.54,0.68 -38.24,4.01 -62.01,10.03 13.6,-16.21 23.86,-31.23 30.65,-45.08 6.82,-13.83 10.98,-27.28 12.6,-40.23z"/>
   <path class="fil0" d="M3192.22 1184.54c9.21,-0.46 19.12,2.14 29.59,7.7 5.98,3.61 12.02,8.82 18.09,15.77 9,8.85 17.49,11.36 25.71,7.54l16.98 -7.91 -47.39 -102.09c-4.3,3.59 -8,6.4 -11.4,8.62 -3.28,2.12 -9.66,6.06 -19.1,11.69 -4.16,2.49 -10.98,6.44 -20.4,12.07 -9.4,5.49 -17.53,9.83 -24.21,12.95l-166.66 77.41 5.56 12.79c2.93,6.26 8.63,10.28 17.16,12.13l9.81 2.94c5.16,1.36 10.25,5.66 15.19,12.94 3.46,4.21 6.51,8.47 9.18,12.82 2.64,4.28 5.86,10.63 9.79,18.88l138.3 300.79c7.23,15.48 11.69,27.12 13.5,34.91 1.85,7.67 1.76,14 -0.26,19.01 -0.49,1.26 -1.39,2.98 -2.67,5.11 -0.78,1.13 -1.94,2.91 -3.53,5.54 -4.23,6.72 -4.78,13.63 -1.56,20.55l6.41 13.9 267.8 -124.45 -51.91 -111.55 -23.01 10.74c-4.81,2.21 -6.24,9.53 -4.3,21.9 3.07,16.48 3.84,28.58 2.41,36.41 -1.85,6.99 -4.34,13.5 -7.23,19.49 -3,5.98 -6.88,11.25 -11.62,15.86 -4.7,4.63 -11.58,9.88 -20.47,15.61 -8.91,5.87 -19.34,11.6 -31.36,17.09l-33.58 14.93 -87.79 -188.74 22.96 -10.58c13.05,-6.11 23,-8.91 29.82,-8.54 4.87,0.58 9.17,1.63 12.97,3.2 3.79,1.54 7.06,3.57 9.86,5.89 2.76,2.44 5.23,4.98 7.15,7.63 6.37,5.98 12.88,7.43 19.6,4.3l11.98 -5.56 -54.06 -116.26 -11.93 5.6c-7.36,3.38 -10.76,8.98 -10.3,16.63l0.86 8.38c-0.38,11.21 -2.94,19.54 -7.55,24.99 -4.34,6.6 -12.57,12.77 -24.77,18.42l-23.29 10.06 -81.6 -175.41 34.03 -15.83c23.13,-10.7 38.86,-16.12 47.26,-16.23z"/>
   <path class="fil0" d="M3625.27 1338.47l-97.78 35.2 -12.17 -183.7 109.96 148.51zm-145.51 -326.09c-2.58,0.88 -5.2,6.09 -7.74,15.35 -1.3,3.2 -2.49,6.33 -3.62,9.4 -1.08,3.13 -1.94,5.67 -2.47,7.55l-8.23 19.23c-0.81,2.51 -2.91,7.58 -6.33,15.19 -2.8,6.66 -3.88,10.76 -3.31,12.33l3.02 7.39 4.34 6.95 17.35 23.67 18 339.07 0.95 12.97c1.34,12.37 1.17,22.82 -0.38,31.29 -1.48,8.4 -4.06,15.43 -7.72,20.92l-6.33 7.08c-4.74,5.93 -6.29,11.32 -4.53,16.08l6.11 17.09 106.22 -38.29 -6.13 -16.98c-1.98,-5.44 -6.11,-8.71 -12.3,-9.66l-4.66 -0.58c-8.09,-2.01 -13.78,-4.45 -17.11,-7.36 -3.21,-2.89 -5.97,-7.43 -8.13,-13.5l-2.36 -9.53 -0.95 -14.09 -3.29 -44 123.8 -44.59 28.89 41.13 8.75 13.14c0.55,0.78 1.54,2.29 3.13,4.54 1.57,2.32 2.56,4.08 3.02,5.38 2.21,5.91 -0.35,13.34 -7.41,22.32 -2.89,3.77 -4.52,6.86 -4.94,9.37 -0.49,2.49 -0.09,5.41 1.06,8.67l6.18 17.05 143.72 -51.79 -6.06 -17.02c-1.68,-4.52 -7.03,-7.56 -16.21,-8.98l-8.55 -1.32c-13.15,-2.89 -26.2,-14.07 -39.13,-33.61l-8.09 -11.38 -276.94 -360.01c-0.58,-0.28 -1.17,-0.44 -1.66,-0.48z"/>
   <path class="fil0" d="M3961.16 1100.24c-8.91,19.52 -27.74,33.04 -56.68,40.47 -1.81,0.46 -3.97,0.77 -6.6,0.97 -2.49,0.18 -4.06,0.33 -4.52,0.49 -3.11,0.77 -6.28,1.63 -9.35,2.4l-50.35 -195.06c2.03,-1.33 5.03,-2.41 8.78,-3.38 1.44,-1.06 3.4,-1.72 6,-1.88 30.52,-7.9 54.56,-5.47 72.14,7.19 9.66,6.84 18.06,16.01 25.26,27.61 7.15,11.53 12.79,25.03 16.74,40.52 4.46,17.24 6.55,32.48 6.22,45.72 -0.31,13.25 -2.89,24.92 -7.63,34.95zm81.49 -19.82c11.98,-24.39 13.83,-52.77 5.47,-85.06 -7.01,-27.37 -18.9,-49.34 -35.61,-65.91 -16.72,-16.67 -37.29,-28.01 -61.9,-34.18 -12.66,-2.91 -26.95,-3.49 -42.81,-1.86 -8.18,0.66 -19.39,2.83 -33.48,6.33 -14.16,3.51 -28.89,7.28 -44.09,11.16l-110.66 28.58 3.06 13.5c1.72,6.48 6.53,11.42 14.55,14.58 1.33,0.61 3.13,1.59 5.38,2.93 1.13,0.66 2.31,1.06 3.58,1.23 4.87,2.32 9.17,7.7 12.79,16.12 2.62,4.74 4.87,9.57 6.73,14.4 1.76,4.76 3.9,11.78 6.33,21.02l81.16 320.42c2.36,9.17 4.08,16.87 5.21,23 1.13,6.18 1.81,11.1 1.98,14.56 0.24,7.63 -0.94,13.72 -3.93,18.26l-8 9.26c-5.43,5.96 -7.19,12.64 -5.23,20l3.79 14.84 139.22 -35.88 -3.79 -14.88c-1.63,-6.46 -7.46,-11.2 -17.23,-14.2l-10.12 -4.23c-5.38,-2.43 -9.83,-7.54 -13.28,-15.26 -3.44,-6.75 -7.28,-18.57 -11.62,-35.44l-37.09 -143.79 5.42 -1.44c17.23,-4.45 32.99,2.05 47.26,19.41 1.54,1.23 2.49,2.69 2.98,4.26l139.11 179.36 100.54 -25.94 -3.84 -14.86c-1.89,-7.15 -8.09,-12.35 -18.84,-15.66 -2.05,-0.62 -4.48,-1.21 -7.28,-1.7 -0.99,0.07 -1.85,-0.09 -2.62,-0.35 -4.34,-1.99 -9.64,-6.06 -15.77,-12.15 -6.15,-6.06 -13.21,-14.64 -21.44,-25.76 -0.53,-0.31 -1.17,-1.26 -1.81,-2.81l-56.17 -74.16c-17.16,-21.88 -31.71,-36.5 -43.69,-44 -13.21,-7.88 -27.3,-11.73 -42.38,-11.62l-1.33 -5.41c34.3,-20.09 57.41,-42.3 69.42,-66.67z"/>
   <path class="fil0" d="M4351.92 990.45c-1.17,13.08 -4.06,24.26 -8.66,33.43 -5.12,8.98 -12.18,16.25 -21.2,21.81 -8.95,5.51 -20.44,9.38 -34.36,11.65 -1.13,0.13 -3.15,0.22 -6,0.22 -2.8,0 -4.61,0 -5.51,0.2 -3.27,0.46 -6.29,0.99 -9.26,1.46l-31.25 -196.21c2.14,-1.08 4.81,-1.83 8.05,-2.31 1.68,-0.99 3.74,-1.48 6.15,-1.34 28.56,-4.54 50.57,0.35 65.98,14.75 9.18,7.48 16.45,17.05 21.81,28.6 5.34,11.58 9.33,25.58 11.93,42.03 2.78,17.45 3.57,32.64 2.31,45.72zm16.32 118.93c19.12,14.67 31.27,38.22 36.45,70.73 5.47,34.47 2.18,61.11 -10.01,79.86 -12.13,18.66 -33.85,30.5 -65.21,35.55 -2.28,0.31 -4.89,0.46 -7.96,0.55 -3.06,0 -4.83,0 -5.29,0.11 -0.86,0.13 -2.16,0.39 -3.75,0.57 -1.39,0.18 -3.88,0.79 -7.46,1.54l-31.78 -199.23c2.4,-1.14 5.8,-1.98 10.16,-2.71 1.76,-0.38 3.04,-0.51 3.73,-0.64 1.13,-0.19 2.43,-0.33 3.75,-0.57 32.53,-5.16 58.29,-0.4 77.37,14.24zm52.46 -111.94c12.66,-22.91 16.72,-49 12.11,-78.24 -6.97,-43.71 -27.31,-73.02 -60.87,-88.08 -16.92,-7.85 -37.78,-12.15 -62.55,-12.95 -24.72,-0.77 -54.42,1.68 -89.25,7.23l-100.19 15.9 1.85 13.76c1.08,6.68 5.47,12 13.15,15.9l8.58 5.33c4.65,2.76 8.36,8.43 11.07,16.87 2.23,5.05 4.04,10.03 5.38,15.04 1.41,4.89 2.84,12.04 4.3,21.39l50.61 326.71c1.5,9.37 2.49,17.15 3.06,23.46 0.51,6.26 0.73,11.1 0.55,14.65 -0.38,7.65 -2.23,13.52 -5.6,17.82 -0.77,1.1 -2.05,2.43 -3.9,4.17 -0.99,0.81 -2.69,2.27 -4.96,4.3 -5.95,5.4 -8.31,11.88 -7.06,19.39l2.36 15.08 121.78 -19.39c46.89,-7.41 80.27,-15.77 100.15,-25.1 19.89,-9.2 36.81,-22.01 50.86,-38.37 5.56,-7.9 10.08,-15.66 13.7,-23.18 3.57,-7.43 6.33,-15.2 8.13,-23.27 4.11,-16.59 4.66,-34.76 1.44,-54.45 -2.58,-16.52 -7.37,-30.85 -14.38,-43.16 -7,-12.24 -16.21,-22.85 -27.79,-31.82 -11.52,-8.93 -25.5,-16.3 -42.08,-21.97 -16.63,-5.69 -37.23,-10.06 -61.6,-12.95 18.54,-10.19 33.45,-20.57 44.88,-31.09 11.31,-10.43 20.07,-21.44 26.26,-32.99z"/>
   <path class="fil0" d="M4725.84 813.08c8.73,2.89 17.05,8.84 24.81,17.82 4.34,5.51 8.05,12.53 11.2,21.19 5.2,11.43 12.3,16.9 21.32,16.28l18.68 -1.26 -7.61 -112.26c-5.18,1.68 -9.79,2.98 -13.67,3.86 -3.91,0.79 -11.18,2.2 -22.06,4.06 -4.76,0.81 -12.53,2.11 -23.33,3.9 -10.81,1.79 -19.92,2.87 -27.26,3.39l-183.33 12.42 0.55 13.87c0.49,6.96 4.37,12.75 11.65,17.49l8.05 6.26c4.39,3.15 7.59,9 9.64,17.58 1.7,5.18 3.02,10.25 3.93,15.22 0.95,4.96 1.68,12.02 2.29,21.15l21.06 330.41c1.17,17.07 1.19,29.53 0.13,37.38 -1.13,7.9 -3.46,13.76 -7.21,17.7 -0.81,0.99 -2.27,2.25 -4.16,3.79 -1.17,0.78 -2.94,2.05 -5.38,3.86 -6.38,4.85 -9.31,11.05 -8.82,18.64l1.06 15.26 294.55 -19.96 -8.27 -122.66 -25.34 1.68c-5.29,0.35 -9.31,6.68 -11.98,18.9 -3,16.52 -6.61,28.08 -10.85,34.89 -4.26,5.85 -8.83,11.03 -13.7,15.57 -4.94,4.48 -10.45,8.05 -16.54,10.65 -6.06,2.62 -14.33,5 -24.77,7.23 -10.38,2.24 -22.19,3.77 -35.31,4.69l-36.78 1.79 -14.13 -207.57 25.32 -1.74c14.31,-0.95 24.56,-0.04 30.81,2.76 4.34,2.34 8,4.83 10.9,7.63 3.02,2.87 5.42,5.89 7.15,9.2 1.68,3.16 3.02,6.35 3.97,9.6 3.7,7.85 9.35,11.53 16.76,11l13.17 -0.88 -8.73 -127.91 -13.19 0.93c-8.05,0.55 -13.21,4.52 -15.55,11.85l-2.23 8.16c-4.37,10.28 -9.75,17.2 -15.95,20.62 -6.46,4.63 -16.4,7.33 -29.77,8.3l-25.32 0.97 -13.15 -192.97 37.38 -2.58c25.47,-1.72 42.1,-1.1 50.02,1.86z"/>
   <path class="fil0" d="M4929.93 1210.73c-0.6,5.89 -1.37,10.89 -2.32,14.86 -1.04,4.04 -2.21,7.24 -3.51,9.35 -1.32,2.23 -3.26,4.34 -5.85,6.38 -1.39,1.34 -2.67,2.51 -3.84,3.37 -1.21,0.93 -3.19,2.06 -6,3.4 -3.95,2.51 -6.84,5.11 -8.65,8.05 -1.76,2.84 -2.67,6.13 -2.76,9.81l-0.22 15.31 149.98 2.47 0.29 -15.37c0.09,-6.9 -3.94,-13.03 -12.22,-18.2 -1.21,-0.77 -2.76,-1.74 -4.74,-3.06 -2.11,-1.33 -3.75,-2.41 -4.91,-3.35 -2.71,-2.14 -4.74,-4.63 -6.11,-7.46 -1.3,-2.76 -2.31,-6.17 -2.93,-10.12 -1.5,-6.7 -2.12,-19.52 -1.85,-38.24l5.34 -330.52c0.39,-18.77 1.48,-31.98 3.5,-39.54 1.92,-7.65 5.03,-12.99 9.25,-16.25 0.9,-0.84 1.94,-1.99 3.06,-3.2 1.08,-1.28 2.38,-2.38 4.01,-3.26 7.96,-4.96 11.98,-10.85 12.11,-17.53l0.19 -13.9 -144.12 -2.31 -0.22 13.89c-0.11,6.97 3.55,12.9 11.03,17.89l6.42 6.75c5,3.77 8.11,10.28 9.3,19.6 1.57,5.8 2.56,11.2 3.03,16.17 0.48,5.03 0.59,11.82 0.48,20.33l-6.73 330.52c-0.18,10.19 -0.53,18.24 -1.03,24.17z"/>
   <path class="fil0" d="M5314.7 815.38l25.97 1.9c12.93,0.9 22.83,3.9 29.62,9.06 4.37,4.01 7.72,7.58 10.13,10.76 3.19,4.21 5.6,8.91 7.3,14.12l4.3 13.92c4.34,13.74 10.35,20.89 17.95,21.41l19.05 1.35 7.87 -112.26c-5.2,1.33 -9.95,2.08 -14.18,2.49 -4.39,0.38 -9.09,0.86 -14.12,1.23 -5.01,0.49 -10.52,0.89 -16.41,1.33 -6,0.36 -10.89,0.46 -14.82,0.16l-201.68 -14.18c-2.96,-0.24 -6.88,-0.79 -11.71,-1.72 -4.79,-0.88 -11.47,-2.38 -19.85,-4.34l-25.03 -6.33 -7.81 111.28 17.2 1.19c7.78,0.58 14.55,-5.58 20.33,-18.41l6.48 -13.48c2.71,-5.36 5.78,-9.81 9.26,-13.3 3.46,-3.46 7.21,-6.46 11.38,-8.93 7.37,-4.1 17.62,-5.73 30.46,-4.83l26.18 1.85 -27.17 384.94c-0.56,8.51 -1.31,15.83 -2.21,21.92 -0.86,6.06 -1.94,11.09 -2.96,15.15 -1.13,3.94 -2.56,7.34 -4.23,10.14 -1.68,2.8 -3.53,5.01 -5.51,6.77l-10.16 5.89c-7.75,4.1 -11.85,9.81 -12.31,17.23l-1.13 15.32 147.28 10.32 1.01 -15.28c0.26,-3.46 -0.64,-6.77 -2.71,-9.73 -2.14,-3.09 -5.29,-6.15 -9.46,-9.22l-8.27 -6.93c-4.37,-3.94 -6.95,-9.83 -7.76,-17.57 -0.82,-7.7 -0.69,-20.44 0.58,-38.26l27.12 -384.97z"/>
   <path class="fil0" d="M5489.19 1135.46c-3.62,22.14 -6.33,40.49 -8.01,55.18 -1.76,14.57 -2.16,25.97 -1.43,34.09 1.3,18.9 5.73,35.42 13.28,49.34 8.91,18.44 21.96,33.3 39.1,44.72 17.07,11.38 38,19.12 62.68,23.25 50.22,8.31 90.07,-0.29 119.53,-25.82 29.51,-25.47 49.22,-68.81 59.43,-130.12l41.11 -247.75c2.96,-18 5.89,-30.79 8.82,-38.33 2.84,-7.47 6.6,-12.33 11.25,-14.62l8.6 -5.61c4.14,-2.16 7.28,-4.43 9.44,-6.95 2.16,-2.47 3.58,-5.33 4.1,-8.8l2.28 -13.72 -102.42 -16.98 -2.29 13.72c-0.31,3.22 0.22,6.58 1.63,9.95 1.3,3.38 3.53,6.51 6.5,9.38l5.61 7.63c3.48,4.1 5.18,10.56 5.04,19.43 0.46,5.51 0.56,10.78 0.29,15.9 -0.24,5.11 -1.14,12.42 -2.71,21.7l-38.83 227.73c-9.13,55.51 -21.99,93.82 -38.44,114.83 -17.14,20.11 -41,27.63 -71.63,22.58 -28.34,-4.74 -46.82,-17.86 -55.43,-39.52 -7.28,-21.1 -6.59,-57.87 2.06,-110.16l40.2 -242.28c2.53,-15.52 5.51,-27.66 8.78,-36.41 3.33,-8.69 7.23,-14.32 11.62,-16.89l7.94 -5.41c8.4,-3.94 13.17,-9.17 14.25,-15.57l2.21 -13.7 -137.71 -22.89 -2.25 13.76c-1.28,7.3 0.86,13.61 6.25,18.99l6.46 8.11c2.25,2.21 3.75,4.83 4.57,7.63 0.84,2.86 1.17,6.64 1.08,11.64 0.49,5.45 0.58,10.74 0.36,15.88 -0.26,5.09 -1.17,12.33 -2.76,21.72l-40.53 244.36z"/>
   <path class="fil0" d="M5964.38 971.71l-88.57 318.45c-2.49,9.18 -4.76,16.72 -6.84,22.63 -2.11,5.93 -4.01,10.45 -5.56,13.65 -3.48,6.73 -7.67,11.36 -12.46,13.92 -1.1,0.6 -2.8,1.28 -5.03,2.01 -2.25,0.75 -4.39,1.41 -6.46,2.01 -7.67,2.52 -12.48,7.41 -14.47,14.85l-4.06 14.73 103.59 28.21 3.97 -14.73c1.85,-6.46 -0.86,-13.52 -7.92,-20.97l-6.41 -8.21c-3.55,-4.81 -4.88,-11.12 -4.24,-18.81 0.69,-7.74 3.38,-20.27 8.1,-37.8l79.13 -290.49 6.04 0.26 73.14 432.03 38.59 10.56 111.86 -410.92c4.83,-17.67 9.02,-30.08 12.68,-37.27 3.66,-7.15 7.96,-11.58 12.97,-13.34l8.91 -4.81c4.56,-1.83 8.01,-3.78 10.39,-5.8 2.31,-1.99 3.94,-4.83 4.94,-8.36l3.66 -13.35 -97.17 -26.53 -3.66 13.39c-1.76,6.55 -0.13,13.14 5.03,19.74l4.74 8.18c3.29,4.94 4.39,12 3.33,21.04 -0.18,5.69 -0.66,11.38 -1.52,17.02 -0.82,5.69 -2.23,12.07 -4.17,19.21l-57.38 210.85 -8.27 -0.44 -58.53 -341.7 -109.76 -29.95 -4.08 13.28c-0.81,2.93 -0.48,6.15 0.99,9.79 1.37,3.68 3.4,6.88 5.98,9.7 1.3,1.35 2.98,3.11 5.01,5.21 2.16,2.14 3.53,3.61 4.21,4.54 3.88,5.16 5.47,11.87 4.96,20.09 0.09,4.83 -0.18,10.23 -0.99,16.12 -0.73,5.98 -2.29,13.28 -4.65,22.01z"/>
   <path class="fil0" d="M6582.56 1192.08c-0.51,7.19 0.23,12.95 2.12,17.29 1.94,4.32 5.16,7.39 9.73,9.11l14.95 5.67 44.52 -116.8 -14.93 -5.76c-3.84,-1.44 -7.68,-1.54 -11.38,-0.24 -1.54,0.22 -4.06,0.59 -7.55,1.21 -2.18,0.49 -3.75,0.49 -4.85,0 -2.51,-2.41 -4.59,-4.43 -6.22,-6.05 -4.43,-4.68 -10.03,-10.65 -16.87,-18.04 -6.08,-7.39 -12.83,-13.63 -20.2,-18.75 -7.36,-5.05 -15.39,-9.22 -24.04,-12.53 -18.4,-7.01 -36.56,-9.68 -54.67,-7.9 -10.12,0.69 -19.72,2.23 -28.89,4.79 -9.18,2.58 -19.39,6.31 -30.68,11.2 -18.9,9.13 -36.83,20.38 -53.74,33.74 -17.03,13.35 -32.84,28.39 -47.35,45.15 -14.6,16.76 -27.56,35.31 -38.9,55.62 -11.31,20.31 -21.83,43.03 -31.38,68.12 -26.55,69.49 -30.63,130.45 -12.33,182.82 18.3,52.51 55.6,89.54 112.08,111.06 10.85,4.13 22.69,7.76 35.48,10.88 12.77,3.18 25.03,5.6 36.78,7.34 22.96,2.84 48.94,3.46 78.05,1.94l5.09 -13.37c1.26,-3.16 0.81,-5.96 -1.39,-8.3 -2.23,-2.29 -3.86,-4.74 -4.94,-7.08 -2.89,-5.36 -3.66,-12.22 -2.16,-20.73 1.48,-8.49 4.56,-18.72 9.21,-30.88l26.11 -68.48c2.71,-7.15 6.55,-15.59 11.49,-25.41l16.37 -25.34 -113.89 -43.4 -4.98 12.99c-1.26,4.68 -1.72,8.49 -1.34,11.38 0.09,1.02 1.98,3.24 5.6,6.62 1.89,1.74 4.78,4.43 8.84,8.2 3.86,4.69 6.84,9.18 9,13.5 2.05,4.28 3.13,8.51 3.22,12.79 0.62,3.73 -0.18,10.32 -2.36,19.96 -2.2,9.57 -4.74,18.26 -7.76,26.11 -5.7,14.93 -12.88,29.15 -21.44,42.56 -8.63,13.52 -16.48,22.61 -23.49,27.37 -15.24,9.57 -34.21,10.1 -56.68,1.5 -32,-12.28 -49.53,-35.81 -52.6,-70.66 -1.36,-17.15 0.44,-37.86 5.51,-62.26 5.12,-24.39 13.39,-51.61 24.81,-81.75 15.63,-40.87 31.18,-75.69 46.73,-104.36 15.55,-28.64 31.54,-52.55 47.95,-71.56 33.21,-35.68 65.48,-47.5 96.88,-35.58 17.74,6.8 30.53,17.34 38.42,31.76 4.08,7.55 6.83,16.03 8.36,25.5 1.46,9.46 1.72,20.46 0.9,33.08l-1.21 15.92z"/>
   <path class="fil0" d="M7031.39 1323.73l28.56 16.01c36.74,20.55 54.36,48.8 52.79,84.73 -0.19,17.47 -5.51,39.96 -15.97,67.53 -10.52,27.52 -25.84,59.33 -45.92,95.29 -20.24,36.2 -39.28,65.76 -56.98,88.77 -17.75,22.98 -34.12,39.23 -49.07,48.94 -30.96,20.34 -64.48,20.42 -100.47,0.35l-28.19 -16.59 215.24 -385.03zm-87.53 -11.05c-1.94,4.74 -5.34,11.27 -9.9,19.52l-162.52 287.88c-4.61,8.27 -8.71,15.02 -12.19,20.22 -3.4,5.29 -6.29,9.22 -8.6,11.93 -5.05,5.65 -10.1,9.21 -15.44,10.52l-12.11 1.12c-8,0.58 -13.93,4.24 -17.64,10.85l-7.45 13.37 102.46 57.28c68.1,38.11 129.24,47.74 183.37,29.06 54.06,-18.74 102.64,-66.52 145.62,-143.39 27.92,-50.02 43.89,-95.98 47.72,-138.19 3.97,-42.15 -3.35,-79.79 -21.96,-112.96 -8.49,-17.07 -20.42,-32.18 -35.53,-45.39 -7.63,-7.21 -16.23,-13.83 -25.94,-19.89 -9.6,-6 -24.72,-14.8 -45.32,-26.33l-94.58 -52.86 -7.1 11.97c-3.26,5.8 -3.11,12.7 0.44,20.58l3.44 9.46c1.94,5.12 1.41,11.78 -1.63,20.18 -1.48,5.31 -3.11,10.32 -5.14,15.07z"/>
   <path class="fil0" d="M7401.39 1547.78c2.29,0.71 5.05,2.28 8.27,4.48 1.76,0.39 3.53,1.45 5.38,3.31 25.89,17.93 39.72,37.73 41.66,59.36 1.12,11.78 -0.36,24.15 -4.44,37.1 -4.06,13.02 -10.65,26.07 -19.82,39.19 -10.12,14.55 -20.34,26.09 -30.54,34.51 -10.19,8.45 -20.71,14.09 -31.47,17.05 -20.55,6.02 -43.07,0.53 -67.6,-16.52 -1.54,-1.06 -3.22,-2.51 -5.03,-4.3 -1.85,-1.86 -2.93,-2.87 -3.33,-3.2 -2.67,-1.81 -5.29,-3.64 -8,-5.53l114.92 -165.45zm-84.38 -17.05c-2.43,4.48 -6.29,10.61 -11.72,18.44l-189.71 270.71c-5.46,7.81 -10.08,14.16 -14.05,19.04 -3.94,4.87 -7.23,8.53 -9.77,11 -5.6,5.18 -11.02,8.16 -16.36,8.91l-12.24 -0.02c-8.01,-0.2 -14.25,2.82 -18.57,9.11l-8.73 12.57 118.1 82.04 8.75 -12.6c3.84,-5.53 3.62,-12.98 -0.53,-22.36l-3.4 -10.41c-1.68,-5.69 -0.68,-12.37 2.98,-19.98 2.84,-7.06 9.26,-17.71 19.16,-31.96l84.73 -122.02 4.56 3.16c14.69,10.18 20.07,26.35 16.23,48.52 0.04,1.98 -0.4,3.68 -1.37,4.98l-44.97 222.54 85.37 59.21 8.65 -12.6c4.28,-6.11 4.14,-14.31 -0.42,-24.5 -0.86,-1.98 -2.03,-4.23 -3.42,-6.6 -0.69,-0.79 -1.15,-1.5 -1.41,-2.34 -1.39,-4.56 -1.76,-11.13 -1.17,-19.76 0.64,-8.66 2.49,-19.67 5.56,-33.08 -0.13,-0.64 0.22,-1.7 0.91,-3.2l19.47 -91.01c5.43,-27.28 7.06,-47.84 4.96,-61.75 -2.76,-15.15 -9.06,-28.4 -18.92,-39.76l3.15 -4.54c37.6,12.88 69.52,15.85 95.87,9.02 26.29,-6.81 48.99,-23.91 67.97,-51.27 16.17,-23.22 25.03,-46.6 26.66,-70.11 1.7,-23.51 -3.18,-46.54 -14.55,-69.14 -6.11,-11.55 -14.95,-22.74 -26.53,-33.65 -5.89,-5.8 -14.78,-12.83 -26.71,-21.24 -11.85,-8.45 -24.28,-17.12 -37.21,-26.07l-93.86 -65.23 -8.27 11.2c-3.79,5.56 -4.32,12.37 -1.52,20.53 0.39,1.39 0.86,3.42 1.34,5.96 0.18,1.36 0.64,2.47 1.34,3.55 1.46,5.18 0.2,11.88 -3.84,20.15 -1.89,5.18 -4.06,10.01 -6.55,14.55z"/>
   <path class="fil0" d="M7453.77 2065.39c-5.42,-4.34 -11.25,-7.39 -17.49,-9.02 -6.29,-1.7 -12.92,-2.23 -19.94,-1.66 -7.41,1.11 -14,3.2 -19.52,6.13 -5.47,3 -10.35,6.93 -14.43,12.04 -8.26,10.28 -11.64,22.59 -10.03,36.92 1.59,14.49 7.52,25.8 17.78,34.14 5.56,4.48 11.42,7.63 17.66,9.35 6.16,1.74 12.66,2.23 19.57,1.56 14.15,-1.01 25.67,-6.93 34.4,-17.73 8.85,-10.96 12.42,-23.56 10.48,-37.76 -1.9,-14.18 -8.05,-25.54 -18.49,-33.98z"/>
   <path class="fil0" d="M8147.99 2148.42c-2.58,-0.66 -4.92,-1.34 -6.97,-2.03 -2.12,-0.71 -3.59,-1.43 -4.41,-2.23 -1.23,-1.33 -5.11,-11.75 -11.45,-31.27 -2.76,-9.02 -6.41,-17.09 -10.94,-24.13 -4.56,-7.06 -10.3,-14 -17.15,-20.89 -35.75,-35.99 -83.43,-47.94 -143.04,-36.03 -31.14,6.42 -61.33,18.35 -90.53,35.77 -29.22,17.47 -58.73,41.04 -88.7,70.73 -27.88,27.72 -50.12,55.58 -66.62,83.43 -16.59,27.88 -27.24,55.78 -32.13,83.83 -10.08,56.73 3.26,103.7 40.14,140.84 21.52,21.65 46.05,34.86 73.57,39.47 26.02,4.86 57.32,1.66 93.87,-9.48l-8.5 -36.65c-23.73,7.63 -44.55,10.61 -62.19,8.93 -18.61,-3.02 -34.98,-11.53 -48.76,-25.49 -24.35,-24.41 -28.74,-56.83 -13.23,-96.99 8.4,-20.16 21.24,-41.82 38.51,-65 17.22,-23.22 39.03,-47.9 65.35,-74.01 51.38,-51.1 95.16,-84.44 131.15,-100.04 18.11,-7.85 34.12,-10.83 48.21,-9 14.09,1.88 26.88,8.56 38.24,20.11 12.64,12.57 19.3,27.17 20.29,43.73 0.9,16.52 -4.21,35.57 -15.46,57.14l-7.41 13.28c-3.18,6.86 -4.96,12.66 -5.03,17.31 -0.13,4.63 1.63,8.78 5.25,12.4l10.76 10.81 88.66 -88.11 -10.74 -10.87c-3.09,-2.45 -6.7,-4.28 -10.71,-5.56z"/>
   <path class="fil0" d="M7903.89 2514.63c-7.54,-0.13 -14.29,0.79 -20.2,2.76 -5.96,2.03 -11.38,5.14 -16.23,9.44 -9.92,8.73 -15.35,20.27 -16.21,34.76 -0.86,14.47 3.11,26.71 11.85,36.56 4.74,5.38 10.01,9.48 15.77,12.2 5.86,2.8 12.2,4.39 19.05,4.83 14.12,1.39 26.49,-2.47 36.94,-11.65 10.61,-9.28 16.17,-21.15 16.63,-35.41 0.62,-14.36 -3.62,-26.56 -12.44,-36.65 -4.56,-5.25 -9.9,-9.18 -15.72,-11.87 -5.91,-2.67 -12.37,-4.33 -19.43,-4.96z"/>
   <path class="fil0" d="M8539.4 2749.87c-10.56,14.88 -27.21,32.38 -50.06,52.64 -22.74,20.18 -51.5,42.27 -86.14,66.29 -34.31,23.76 -64.81,42.74 -91.52,56.88 -26.75,14.12 -48.85,23.53 -66.52,28.12 -35.7,8.78 -62.59,0.04 -80.71,-26.02 -17.95,-25.87 -16.5,-53.87 4.29,-84.09 10.48,-14.58 27.02,-31.73 49.67,-51.36 22.58,-19.6 51.34,-41.48 86.23,-65.68 35.15,-24.41 66,-43.8 92.31,-58.11 26.27,-14.31 48.17,-23.77 65.48,-28.49 34.98,-8.51 61.46,0.18 79.41,26.05 18.26,26.46 17.49,54.38 -2.44,83.78zm34.38 -105.91c-15.13,-21.92 -33.66,-38.33 -55.31,-49.33 -21.72,-11.01 -46.95,-16.32 -75.69,-15.83 -29.98,0.55 -60.34,6.86 -90.88,18.9 -30.59,12.02 -63.41,30.24 -98.65,54.65 -34.4,23.82 -62.65,48.19 -84.84,72.95 -22.1,24.81 -38.68,50.83 -49.58,78.16 -20.97,54.27 -16.41,103.08 13.61,146.48 30.68,44.13 75.15,65.87 133.49,65.08 58.4,-0.71 121.45,-24.57 189.22,-71.54 68.3,-47.37 112.89,-98.45 133.86,-153.25 10.72,-27.19 14.78,-52.76 12.02,-76.79 -2.71,-24.06 -11.84,-47.24 -27.26,-69.47z"/>
   <path class="fil0" d="M8366.49 3166.09c-5.51,2.67 -10.3,4.61 -14.25,5.98 -3.88,1.28 -7.5,2.01 -10.74,2.09 -3.26,0.09 -6.2,-0.2 -8.73,-0.86l-10.47 -5.18c-7.72,-4.19 -14.78,-4.43 -21.24,-0.74l-13.3 7.56 72.95 128.33 13.28 -7.59c3.02,-1.63 5.24,-4.21 6.55,-7.74 1.36,-3.42 2.18,-7.74 2.4,-12.86l1.21 -10.67c0.95,-5.91 4.39,-11.29 10.3,-16.28 6.06,-5.01 16.74,-11.84 32.24,-20.7l335.5 -190.54 12.84 22.67c6.41,11.25 9.39,21.15 8.93,29.71 -0.94,5.82 -2.11,10.61 -3.46,14.33 -1.68,4.92 -4.21,9.61 -7.61,13.9l-9.26 11.25c-9,11.25 -11.65,20.22 -7.9,26.84l9.44 16.61 97.87 -55.56c-3.93,-3.68 -7.26,-7.15 -10.01,-10.54 -2.71,-3.38 -5.62,-7.06 -8.86,-10.96 -3.09,-3.93 -6.41,-8.3 -10.08,-12.99 -3.66,-4.72 -6.42,-8.82 -8.4,-12.24l-99.79 -175.79c-1.5,-2.63 -3.2,-6.13 -5.09,-10.68 -1.92,-4.49 -4.39,-10.89 -7.41,-19.05l-8.55 -24.21 -96.97 55.09 8.49 14.93c3.93,6.88 12.75,9.11 26.62,6.79l14.82 -2.05c5.98,-0.75 11.33,-0.66 16.14,0.31 4.83,0.98 9.44,2.45 13.78,4.53 7.55,3.94 14.49,11.47 20.86,22.71l12.97 22.85 -335.46 190.5c-7.5,4.3 -13.96,7.7 -19.61,10.28z"/>
   <path class="fil0" d="M9013.2 3452.79c-2.8,-4.14 -5.82,-8.78 -9,-13.8 -3.16,-5.05 -5.51,-9.31 -7.23,-12.95l-83.52 -184.1c-1.21,-2.74 -2.64,-6.46 -4.06,-11.07 -1.5,-4.69 -3.39,-11.2 -5.69,-19.56l-6.33 -25.03 -101.51 46.14 7.1 15.72c3.18,7.1 11.84,10.17 25.84,9.13l15.02 -0.78c6,-0.15 11.33,0.44 16.03,1.86 4.7,1.36 9.13,3.26 13.26,5.65 7.21,4.61 13.45,12.83 18.79,24.57l10.81 23.88 -351.29 159.43c-7.85,3.55 -14.62,6.41 -20.47,8.55 -5.73,2.08 -10.61,3.62 -14.68,4.53 -4.06,0.97 -7.68,1.36 -10.9,1.19 -3.29,-0.22 -6.13,-0.71 -8.58,-1.66l-10.04 -6.13c-7.32,-4.85 -14.33,-5.71 -21.06,-2.67l-13.92 6.33 61 134.44 13.94 -6.35c3.15,-1.41 5.6,-3.78 7.25,-7.08 1.68,-3.28 2.87,-7.54 3.58,-12.68l2.09 -10.5c1.48,-5.76 5.43,-10.85 11.82,-15.28 6.42,-4.43 17.64,-10.3 33.98,-17.71l351.25 -159.42 10.81 23.69c5.36,11.82 7.41,21.99 6.22,30.39 -1.48,5.8 -3.11,10.38 -4.74,14 -2.25,4.78 -5.14,9.17 -8.86,13.19l-10.25 10.27c-10.04,10.48 -13.41,19.12 -10.3,26.07l7.92 17.42 102.48 -46.51c-3.57,-3.99 -6.6,-7.76 -9.04,-11.36 -2.38,-3.68 -4.92,-7.54 -7.72,-11.8z"/>
   <path class="fil0" d="M9003.51 3661.98c35.96,1.19 59.19,16.63 69.55,46.38 10.61,30.37 2.34,57.01 -24.72,79.97 -14.12,11.51 -34.85,23.97 -62.28,37.36 -27.34,13.37 -60.96,26.97 -100.74,40.82 -39.41,13.83 -73.84,23.91 -103.39,30.43 -29.55,6.46 -53.41,9.61 -71.67,9.37 -36.79,-1.17 -60.34,-16.72 -70.77,-46.69 -10.38,-29.75 -1.54,-56.41 26.62,-79.9 13.96,-11.25 34.51,-23.34 61.55,-36.21 27.06,-12.85 60.56,-26.26 100.63,-40.27 40.49,-14.12 75.29,-24.55 104.45,-31.36 29.16,-6.68 52.77,-10.03 70.77,-9.9zm-95.18 -70.35c-32.66,3.42 -69.18,12.2 -109.63,26.31 -39.54,13.78 -73.35,29.71 -101.27,47.64 -27.99,17.95 -50.88,38.68 -68.65,62.04 -34.71,46.71 -43.38,94.98 -25.98,144.87 17.71,50.72 54.74,83.47 111.21,98.38 56.44,14.88 123.59,8.73 201.42,-18.46 78.46,-27.37 135.16,-64.7 169.88,-111.9 17.67,-23.29 28.43,-46.89 32.18,-70.79 3.79,-23.91 1.26,-48.65 -7.76,-74.19 -8.69,-25.16 -22.09,-45.94 -40.13,-62.33 -17.95,-16.43 -40.82,-28.25 -68.65,-35.44 -29.04,-7.54 -59.96,-9.57 -92.6,-6.13z"/>
   <path class="fil0" d="M4019.95 4266.25c0,68.93 46.6,127.03 109.96,144.5l0 -289.08c-63.36,17.49 -109.96,75.58 -109.96,144.58z"/>
   <path class="fil0" d="M4174.2 3497.31c313.63,0 567.79,254.23 567.79,567.88 0,300.17 -232.82,545.87 -527.79,566.44l0 87.86 -84.29 0 0 -88.21c-292.89,-22.59 -523.59,-267.42 -523.59,-566.09 0,-313.65 254.26,-567.88 567.88,-567.88zm504.98 1834.72l-232.12 0 0 -182.36 232.12 0 0 182.36zm-400.49 0l-232.2 0 0 -182.36 232.2 0 0 182.36zm-395.29 0l-232.12 0 0 -182.36 232.12 0 0 182.36zm1961.67 -608.13l232.2 0 0 182.37 -232.2 0 0 -182.37zm0 -225.52l232.2 0 0 182.41 -232.2 0 0 -182.41zm0 -235.42l232.2 0 0 182.4 -232.2 0 0 -182.4zm0 -225.51l232.2 0 0 182.4 -232.2 0 0 -182.4zm6.66 -1100.98l1631.57 0 0 1008.14 -1631.57 0 0 -1008.14zm1618.32 1283.38l-232.2 0 0 -182.4 232.2 0 0 182.4zm0 225.5l-232.2 0 0 -182.4 232.2 0 0 182.4zm0 235.45l-232.2 0 0 -182.41 232.2 0 0 182.41zm0 225.48l-232.2 0 0 -182.37 232.2 0 0 182.37zm-285.26 -686.42l-232.12 0 0 -182.4 232.12 0 0 182.4zm0 225.5l-232.12 0 0 -182.4 232.12 0 0 182.4zm0 235.45l-232.12 0 0 -182.41 232.12 0 0 182.41zm0 225.48l-232.12 0 0 -182.37 232.12 0 0 182.37zm-268.57 -686.42l-232.16 0 0 -182.4 232.16 0 0 182.4zm0 225.5l-232.16 0 0 -182.4 232.16 0 0 182.4zm0 235.45l-232.16 0 0 -182.41 232.16 0 0 182.41zm0 225.48l-232.16 0 0 -182.37 232.16 0 0 182.37zm-278.56 -686.42l-232.11 0 0 -182.4 232.11 0 0 182.4zm0 225.5l-232.11 0 0 -182.4 232.11 0 0 182.4zm0 235.45l-232.11 0 0 -182.41 232.11 0 0 182.41zm0 225.48l-232.11 0 0 -182.37 232.11 0 0 182.37zm-275.18 -686.42l-232.2 0 0 -182.4 232.2 0 0 182.4zm0 225.5l-232.2 0 0 -182.4 232.2 0 0 182.4zm0 235.45l-232.2 0 0 -182.41 232.2 0 0 182.41zm0 225.48l-232.2 0 0 -182.37 232.2 0 0 182.37zm-2273.51 -1838.69l-636.7 0 0 2111.03 148.98 0 0 200.31 133.56 0 0 498.28 282.48 0 0 277.31 87.35 0 0 215.72 107.8 0 0 -215.72 87.36 0 0 -277.31 282.53 0 0 -498.28 154.02 0 0 -200.31 154.13 0 0 -2111.03 -752.98 0c429.05,-406.39 1064.5,-476.76 1564.99,-210.81l0 2192.1 1906.78 0 0 -2231.75 -1890.06 0c-522.1,-286.88 -1197.32,-203.16 -1630.25,250.46z"/>
   <path class="fil0" d="M4129.92 4555.83l0 -71.3c-104.31,-18.85 -183.53,-110.04 -183.53,-219.87 0,-109.8 79.22,-200.92 183.53,-219.8l0 -52.84 -188.71 0c0.53,-0.75 0.86,-1.1 0.86,-1.1l-29.71 -80.41 0 -2.84 217.56 0 0 -81.36 -230.15 0c0.62,-0.71 1.04,-1.13 1.04,-1.13l-35.09 -80.37 0 -2.8 306.24 0 0 0.04 306.39 0 0 2.8 -35.75 80.39c0,0 0.33,0.4 1.08,1.11l-229.47 0 0 81.4 216.5 0 0 2.8 -30.28 80.41c0,0 0.29,0.35 0.86,1.06l-187.08 0 0 53.64c102.13,20.57 179.14,110.82 179.14,219.01 0,108.29 -77.01,198.53 -179.14,219.08l0 73.24c253.84,-17.82 454.26,-229.38 454.26,-487.75 0,-270.11 -218.94,-489.06 -489.1,-489.06 -270.07,0 -489.02,218.95 -489.02,489.06 0,253.35 192.73,461.73 439.57,486.6z"/>
   <path class="fil0" d="M4214.21 4122.88l0 286.65c61.2,-18.88 105.71,-75.91 105.71,-143.28 0,-67.44 -44.5,-124.49 -105.71,-143.37z"/>
   <polygon class="fil0" points="5069.18,4253.15 5552.85,4253.15 5552.85,3810.93 5069.18,3810.93 "/>
   <polygon class="fil0" points="2223.62,4224.96 2223.62,4253.15 2223.62,7188.55 2223.62,7263.86 2223.62,7583.75 7398.25,7583.75 7398.25,7263.86 7398.25,7188.55 7398.25,5222.2 7031.26,5222.2 7031.26,7188.55 2590.53,7188.55 2590.53,4253.15 3220.91,4253.15 3220.91,3810.95 2223.62,3810.95 "/>
   <polygon class="fil0" points="2815.41,6971.2 6780.71,6971.2 6780.71,6370.17 4417.82,6370.17 4309.4,6557.96 4033.32,6557.96 3924.9,6370.17 2815.41,6370.17 "/>
   <path class="fil0" d="M3508.81 5961.97c0,-32.62 -26.44,-59.11 -59.11,-59.11 -32.59,0 -59.08,26.49 -59.08,59.11 0,32.64 26.49,59.06 59.08,59.06 32.66,0 59.11,-26.42 59.11,-59.06z"/>
   <path class="fil0" d="M3696.21 6028.73c0,-32.62 -26.44,-59.13 -59.06,-59.13 -32.59,0 -59.08,26.51 -59.08,59.13 0,32.61 26.49,59.06 59.08,59.06 32.62,0 59.06,-26.44 59.06,-59.06z"/>
   <path class="fil0" d="M3855.46 6134c0,-32.64 -26.4,-59.04 -59.06,-59.04 -32.64,0 -59.08,26.4 -59.08,59.04 0,32.64 26.44,59.04 59.08,59.04 32.66,0 59.06,-26.4 59.06,-59.04z"/>
   <path class="fil0" d="M4014.44 6241.85c0,-32.62 -26.39,-59.06 -59.1,-59.06 -32.59,0 -58.99,26.44 -58.99,59.06 0,32.62 26.4,59.1 58.99,59.1 32.71,0 59.1,-26.48 59.1,-59.1z"/>
   <path class="fil0" d="M4962.4 5961.97c0,-32.62 -26.44,-59.11 -59.11,-59.11 -32.59,0 -59.03,26.49 -59.03,59.11 0,32.64 26.44,59.06 59.03,59.06 32.66,0 59.11,-26.42 59.11,-59.06z"/>
   <path class="fil0" d="M4774.98 6028.73c0,-32.62 -26.48,-59.13 -59.06,-59.13 -32.68,0 -59.13,26.51 -59.13,59.13 0,32.61 26.44,59.06 59.13,59.06 32.58,0 59.06,-26.44 59.06,-59.06z"/>
   <path class="fil0" d="M4615.7 6134c0,-32.64 -26.4,-59.04 -59.06,-59.04 -32.64,0 -59.08,26.4 -59.08,59.04 0,32.64 26.44,59.04 59.08,59.04 32.66,0 59.06,-26.4 59.06,-59.04z"/>
   <path class="fil0" d="M4456.72 6241.85c0,-32.62 -26.49,-59.06 -59.06,-59.06 -32.69,0 -59.08,26.44 -59.08,59.06 0,32.62 26.39,59.1 59.08,59.1 32.57,0 59.06,-26.48 59.06,-59.1z"/>
  </g>
 </g>
</svg>
