<?xml version="1.0" encoding="UTF-8"?>
<!DOCTYPE svg PUBLIC "-//W3C//DTD SVG 1.0//EN" "http://www.w3.org/TR/2001/REC-SVG-20010904/DTD/svg10.dtd">
<!-- Creator: CorelDRAW 2018 (64-Bit Evaluation Version) -->
<svg xmlns="http://www.w3.org/2000/svg" xml:space="preserve" width="49.9272mm" height="42.7214mm" version="1.0" style="shape-rendering:geometricPrecision; text-rendering:geometricPrecision; image-rendering:optimizeQuality; fill-rule:evenodd; clip-rule:evenodd"
viewBox="0 0 3020.03 2584.16"
 xmlns:xlink="http://www.w3.org/1999/xlink">
 <defs>
  <style type="text/css">
   <![CDATA[
    .fil0 {fill:#B2B3B3;fill-rule:nonzero}
    .fil1 {fill:url(#id0)}
   ]]>
  </style>
  <linearGradient id="id0" gradientUnits="userSpaceOnUse" x1="395.55" y1="1215.87" x2="2600.2" y2="1215.87">
   <stop offset="0" style="stop-opacity:1; stop-color:#FCE464"/>
   <stop offset="0.321569" style="stop-opacity:1; stop-color:#F7CC3A"/>
   <stop offset="0.490196" style="stop-opacity:1; stop-color:#FCE37D"/>
   <stop offset="1" style="stop-opacity:1; stop-color:#F2B30F"/>
  </linearGradient>
 </defs>
 <g id="Layer_x0020_1">
  <metadata id="CorelCorpID_0Corel-Layer"/>
  <g id="_2877006461728">
   <path class="fil0" d="M1070.44 2182.56c-307.68,-279.83 -701.63,-805.04 -973.3,-1769.89 0,0 1277.67,-601.06 2821.9,0 0,0 -237.14,1069.08 -973.16,1764.28 -244.05,230.51 -627.11,231.47 -875.44,5.61zm-1052.9 -1569.81c421.59,1259.12 1028.32,1750.64 1334.48,1927.03 110.7,63.8 249.36,58.73 353.99,-14.61 753.79,-528.49 1137.76,-1430.37 1296.66,-1907.35 59.74,-179.29 -39.84,-370.64 -220.54,-425.96 -1117.38,-342.17 -2074.67,-150.91 -2546.7,-6.22 -179.84,55.15 -277.61,248.74 -217.89,427.11z"/>
   <path class="fil1" d="M616.78 355.56c-205.55,54.33 -320.22,274.36 -247.95,474.29l0 0c268.91,743.88 619.58,1120.37 863.93,1304.62l0 0c163.11,123 388.59,116.5 545.87,-13.86l0 0c455.86,-377.85 716.69,-926.19 848,-1283.56l0 0c73.48,-199.95 -40.01,-420.69 -245.66,-476.12l0 0c-319.76,-86.18 -620.86,-117.73 -890.24,-117.73l0 0c-357.01,0 -658.36,55.39 -873.96,112.36zm935.17 774.5c-103.54,-8.87 -209.18,-11.89 -309.54,-35.72l0 0c-185.4,-44.07 -241.17,-176.77 -142.09,-339.05l0 0c148.41,-243.12 359.05,-405.82 646.01,-456.37l0 0c87.24,-15.37 163.61,7.23 228,84.14l0 0c-244.38,-92.93 -491.63,3.82 -582.09,221.14l0 0c-40.07,96.26 -14.52,164.14 84.09,199.65l0 0c56.93,20.49 118.73,27.52 178.31,40.9l0 0c110.26,24.77 223.91,40.16 329.95,77.1l0 0c127.86,44.58 180.79,141.99 169.76,276.68l0 0c-4.92,59.8 -17.24,118.99 -35.1,182.34l0 0c-65.59,-208.04 -230.17,-242.64 -410.91,-249.24l0 0c-21.9,-0.81 -43.85,-0.43 -65.79,-0.03l0 0c-12.58,0.23 -25.18,0.46 -37.73,0.46l0 0c-17.69,0 -35.33,-0.46 -52.86,-2zm-145.14 854.96c105.89,-31.93 190.53,-93.96 252.99,-184.8l0 0c94.09,-136.85 61.03,-231.39 -99.81,-270.35l0 0c-87.64,-21.19 -178.86,-27.31 -267.63,-44.43l0 0c-57.61,-11.11 -115.44,-25.24 -170.2,-45.86l0 0c-138.46,-52.17 -201.74,-146.7 -192.99,-292.73l0 0c4,-66.65 21.52,-132.52 32.88,-198.74l0 0c11.09,-0.35 8.9,-0.28 19.96,-0.63l0 0c53.06,203.07 204.63,253.14 390.97,258.38l0 0c148.97,4.21 297.6,18.62 446.34,29.46l0 0c17.79,1.31 35.36,7.94 52.66,13.35l0 0c158.17,49.44 211.52,159.94 143.69,310.17l0 0c-74.44,164.92 -206.55,278.22 -355.07,374.82l0 0c-104.27,67.86 -216.56,114.78 -341.94,122.89l0 0c-92.18,5.98 -167.72,-24.97 -227.27,-123.04l0 0c73.23,44.68 142.85,67.11 213.08,67.11l0 0c33.81,0 67.75,-5.19 102.33,-15.6l0 0z"/>
  </g>
 </g>
</svg>
