<?xml version="1.0" encoding="UTF-8"?>
<!DOCTYPE svg PUBLIC "-//W3C//DTD SVG 1.0//EN" "http://www.w3.org/TR/2001/REC-SVG-20010904/DTD/svg10.dtd">
<!-- Creator: CorelDRAW 2018 (64-Bit Evaluation Version) -->
<svg xmlns="http://www.w3.org/2000/svg" xml:space="preserve" width="157.433mm" height="31.4948mm" version="1.0" style="shape-rendering:geometricPrecision; text-rendering:geometricPrecision; image-rendering:optimizeQuality; fill-rule:evenodd; clip-rule:evenodd"
viewBox="0 0 15335.58 3067.92"
 xmlns:xlink="http://www.w3.org/1999/xlink">
 <defs>
  <style type="text/css">
   <![CDATA[
    .fil0 {fill:#469BD6}
    .fil1 {fill:#B4C2DC;fill-rule:nonzero}
   ]]>
  </style>
 </defs>
 <g id="Layer_x0020_1">
  <metadata id="CorelCorpID_0Corel-Layer"/>
  <g id="_1619286461968">
   <path class="fil0" d="M6472.05 1755.55c37.9,-302.48 6.48,-635.66 10.54,-944.38 4.78,-361.23 210.99,-372.56 534.29,-372.02 345.15,0.55 513.11,27.98 517.25,403.15 3.17,284.75 -21.36,636.13 7.16,919.76l514.87 -4.93c142.32,-885.34 -303.63,-1318.66 543.81,-1317.01 375.68,0.72 516.06,34.38 518.26,432.71 1.18,221.21 -25.89,706.97 17.29,894.91l508.51 -0.72c37.46,-197.59 10.93,-694.33 11.22,-924.25 0.36,-248 20.88,-547.34 -207.62,-695.84 -206.22,-133.98 -540.73,-133.91 -786.78,-134.63 -549.9,-1.54 -757.84,79.9 -851.8,81.38 -27.44,0.43 -378.38,-81.23 -853.05,-80.15 -833.42,1.87 -1011.45,107.51 -1008.1,829.25 1.26,277.12 -19.96,644.15 9.09,919.25l515.06 -6.47z"/>
   <path class="fil0" d="M11376.2 1754.98c117.55,-1043.16 -312.78,-1314.79 663.92,-1315.54 307.37,-0.25 650.76,-54.37 668.24,341.05 14.2,321.96 -30.06,652.66 4.02,981.35l514.08 -6.37c29.31,-234.01 40.13,-1224.21 -52.75,-1406.36 -198.42,-389.06 -759.49,-335.34 -1133.59,-335.88 -343.28,-0.5 -975.85,-35.59 -1128.34,340.66 -78.71,194.21 -81.58,1170.27 -51.49,1409.82l515.91 -8.74z"/>
   <path class="fil0" d="M13506.69 1757.53c322.54,33.12 1032.12,23.12 1365.84,-3.63 537.28,-43.05 459.68,-449.07 458.53,-880.67 -1.19,-461.8 71.45,-810.08 -489.38,-850.9 -282.27,-20.53 -1079.44,-39.01 -1341.07,2.91l12.4 408.08c339.81,29.7 893.91,-41.03 1193.5,29.74 140.91,125.88 129.92,660.93 43.11,827.67 -205.43,105.86 -963.19,46.71 -1246.82,49.91l3.89 416.89z"/>
   <path class="fil0" d="M12.8 1755c297.51,34.09 1067.03,27.91 1373.15,-2.41 532.2,-52.68 443.74,-451.92 444.04,-879.37 0.28,-471.37 74.03,-814.69 -504.34,-851.26 -225.31,-14.23 -1162.96,-40.99 -1325.64,15.83l5.83 386.53c295.85,68.22 959.92,-48.69 1206.52,46.1 135.92,105.07 110.89,616.24 59.83,782.72 -156.92,190.03 -984.55,58.89 -1268.86,102.54l9.49 399.3z"/>
   <path class="fil0" d="M2929.67 1757.85c347.45,29.45 1371.74,55.3 1637.5,-140.31 215.21,-158.39 175.26,-466.51 175.15,-713.89 -0.11,-291.22 21.46,-596.57 -7.88,-890.74l-514.44 10.9c-28.22,254.14 67.9,1074.15 -88.31,1221.76 -167.27,158.07 -940.32,80.65 -1212.8,109.13l10.78 403.15z"/>
   <path class="fil0" d="M2168.91 1766.48l504.6 0.54c43.29,-143.4 36.28,-1541.13 12.01,-1754.86l-528.54 18.37 11.93 1735.95z"/>
   <path class="fil0" d="M9997.35 1764l523.97 -10.86 -6 -1739.8 -526.49 8.74 8.52 1741.92z"/>
   <path class="fil0" d="M5091.24 1764.68l521.99 -13.87 -5.93 -1737.32 -526.88 7.27 10.82 1743.93z"/>
  </g>
  <path class="fil1" d="M5644.56 2700.44l-405.21 0 -139.27 353.49 -77.09 0 401.04 -1001.85 44.48 0 392.84 1001.85 -78.46 0 -138.32 -353.49zm-380.08 -61.5l356.78 0 -135.78 -359.57c-11.4,-28.15 -24.92,-67.31 -40.99,-117.36 -12.33,43.54 -25.6,83.13 -40.27,118.76l-139.74 358.17zm787.61 89.43l378.66 -416.39 81.95 0 -292.26 316.71 317.43 425.24 -81.3 0 -281.76 -374.71 -121.58 110.64 0 264.07 -67.52 0 0 -1061.93 67.52 0 0 532.35 -4.64 204.03 3.49 0zm1060.27 325.56l-17.01 -117.36 -5.57 0c-37.25,47.96 -75.69,81.73 -115.06,101.54 -39.33,19.77 -85.91,29.81 -139.48,29.81 -72.88,0 -129.48,-18.66 -170,-55.91 -40.52,-37.46 -60.77,-88.96 -60.77,-155.09 0,-72.41 30.28,-128.54 90.58,-168.6 60.34,-40.06 147.42,-61.24 261.77,-63.37l141.09 -4.17 0 -49.15c0,-70.54 -14.2,-123.65 -42.82,-159.75 -28.66,-35.86 -75.01,-53.8 -138.58,-53.8 -68.68,0 -139.95,19.1 -213.77,57.29l-25.17 -58.69c81.51,-38.18 161.88,-57.28 241.52,-57.28 81.48,0 142.29,21.22 182.56,63.36 40.31,42.36 60.56,108.27 60.56,197.95l0 493.23 -49.84 0zm-273.17 -47.5c79.18,0 141.82,-22.58 187.49,-67.99 45.63,-45.2 68.67,-108.06 68.67,-188.64l0 -73.14 -129.69 5.36c-104.36,5.13 -178.64,21.43 -222.87,48.9 -44.48,27.47 -66.6,70.54 -66.6,128.8 0,46.32 14.21,82.42 42.62,108.06 28.4,25.85 68.67,38.65 120.38,38.65zm834.43 -708.44c53.55,0 99.89,9.78 139.01,29.34 39.12,19.56 74.07,53.11 105.03,100.4l4.21 0c-2.81,-57.32 -4.21,-113.67 -4.21,-168.61l0 -267.13 66.85 0 0 1061.93 -44.26 0 -17.23 -112.94 -5.36 0c-56.34,84.53 -137.39,126.93 -242.89,126.93 -102.22,0 -180.46,-31.93 -234.51,-95.5 -54.01,-63.79 -81.27,-156.49 -81.27,-278.53 0,-128.3 27,-226.35 80.58,-294.1 53.55,-67.78 131.57,-101.79 234.05,-101.79zm0 61.49c-81.05,0 -141.85,28.41 -182.59,85.48 -40.52,57.06 -61.02,139.73 -61.02,248.25 0,210.75 81.73,316.03 244.75,316.03 83.82,0 145.09,-24.49 184.21,-73.14 39.12,-48.91 58.68,-129.27 58.68,-241.49l0 -11.65c0,-114.82 -19.35,-197.48 -57.53,-247.78 -38.4,-50.53 -100.61,-75.7 -186.51,-75.7zm859.78 708.44c-107.8,0 -191.87,-33.33 -252.21,-99.67 -60.31,-66.39 -90.37,-159.55 -90.37,-279.25 0,-118.3 29.13,-213.09 87.35,-284.1 58.21,-71.28 136.71,-106.91 235.45,-106.91 87.3,0 156.23,30.28 206.78,91.08 50.53,60.52 75.7,142.97 75.7,247.32l0 54.27 -534.47 0c0.94,102.44 24.7,180.68 71.48,234.73 46.6,54.04 113.41,81.05 200.29,81.05 42.39,0 79.43,-3.02 111.53,-8.84 32.15,-5.83 72.67,-18.62 121.83,-38.18l0 61.45c-41.94,18.2 -80.59,30.53 -116.01,37.04 -35.38,6.76 -74.5,10.03 -117.36,10.03zm-19.77 -711.24c-71.53,0 -128.81,23.52 -172.1,70.81 -43.11,47.28 -68.46,115.53 -75.69,204.48l458.52 0c0,-86.4 -18.62,-153.71 -55.87,-202.37 -37.29,-48.69 -88.96,-72.92 -154.86,-72.92zm1413.77 697.25l0 -486.47c0,-72.2 -14.2,-125.06 -42.35,-158.14 -28.19,-33.3 -71.52,-49.84 -129.73,-49.84 -75.91,0 -132.04,20.96 -168.61,62.64 -36.31,41.93 -54.47,107.58 -54.47,197.26l0 434.55 -68.94 0 0 -506.75c0,-125.06 -57.28,-187.7 -171.87,-187.7 -77.78,0 -134.59,22.59 -170.01,67.79 -35.38,45.41 -53.32,117.83 -53.32,217.25l0 409.41 -67.52 0 0 -741.95 56.13 0 14.2 102.01 4.17 0c20.5,-36.81 49.62,-65.44 87.34,-85.72 37.72,-20.24 79.43,-30.28 124.85,-30.28 116.89,0 191.86,43.8 225.16,131.6l2.81 0c23.98,-42.17 56.6,-74.75 97.12,-97.59 40.74,-22.58 87.08,-34.02 139.01,-34.02 80.83,0 141.6,21.68 182.12,64.76 40.52,43.3 60.76,112.01 60.76,206.07l0 485.1 -66.84 0zm374.25 0l-67.53 0 0 -741.95 67.53 0 0 741.95zm-77.1 -947.8c0,-43.54 14.46,-65.23 43.11,-65.23 13.96,0 24.92,5.61 33.05,17.01 7.91,11.4 11.9,27.47 11.9,48.22 0,20.5 -3.99,36.54 -11.9,48.43 -8.13,11.87 -19.09,17.7 -33.05,17.7 -28.66,0 -43.11,-22.12 -43.11,-66.13z"/>
 </g>
</svg>
